M48
;DRILL file {kicad (2015-01-16 BZR 5376)-product} date 06-Jul-17 9:47:31 AM
;FORMAT={-:-/ absolute / metric / decimal}
FMAT,2
METRIC,TZ
T1C0.500
T2C0.600
T3C0.635
T4C0.800
T5C0.813
T6C1.000
T7C1.001
T8C1.016
T9C1.050
T10C1.199
T11C1.200
T12C1.500
T13C1.524
T14C2.200
T15C2.301
T16C2.500
%
G90
G05
M71
T1
X54.801Y-50.8
X56.706Y-84.455
X59.627Y-87.376
X60.389Y-78.994
X61.277Y-75.438
X65.596Y-82.931
X65.596Y-87.249
X77.66Y-45.212
X77.914Y-46.482
X78.168Y-47.752
X78.422Y-49.276
X78.422Y-50.8
X78.676Y-43.688
X79.185Y-52.07
X80.709Y-55.118
X81.978Y-56.388
X83.248Y-57.404
X132.271Y-84.582
X150.304Y-56.769
X150.432Y-59.69
X171.894Y-48.641
X172.656Y-42.926
X176.467Y-32.639
X176.467Y-34.29
X179.768Y-32.766
X183.578Y-35.179
X184.34Y-42.418
X187.897Y-54.229
X189.166Y-32.766
X189.166Y-34.036
X192.595Y-32.766
X196.024Y-35.052
X197.929Y-49.276
X198.057Y-42.926
X201.739Y-32.385
X201.867Y-34.036
X206.058Y-32.639
T2
X52.006Y-63.5
X52.006Y-65.532
X56.325Y-63.5
X59.118Y-82.804
X59.88Y-64.77
X62.547Y-73.406
X65.215Y-75.692
X66.739Y-75.946
X67.501Y-87.376
X69.278Y-82.677
X73.088Y-156.464
X78.422Y-148.844
X84.519Y-68.834
X84.519Y-70.612
X84.519Y-76.2
X85.026Y-71.882
X85.026Y-73.406
X85.026Y-74.93
X86.042Y-148.336
X87.313Y-46.228
X92.138Y-66.548
X92.265Y-54.737
X93.154Y-67.818
X98.996Y-72.898
X100.774Y-69.342
X100.774Y-75.692
X101.028Y-77.724
X103.06Y-77.47
X110.68Y-80.518
X113.221Y-47.498
X115.76Y-49.276
X127.191Y-60.706
X130.238Y-60.452
X130.307Y-81.916
X135.826Y-153.67
X140.398Y-42.291
X148.272Y-149.098
X150.685Y-46.736
X150.813Y-53.975
X153.352Y-46.355
X154.114Y-108.458
X156.147Y-107.442
X157.671Y-81.28
X159.449Y-49.784
X159.957Y-32.639
X159.957Y-34.671
X163.131Y-38.227
X163.259Y-85.09
X163.512Y-83.566
X163.512Y-92.71
X163.766Y-32.893
X163.766Y-90.424
X163.766Y-95.25
X163.893Y-34.798
X164.021Y-88.138
X164.147Y-58.039
X168.338Y-76.327
X172.656Y-113.284
X174.18Y-114.3
X183.451Y-160.274
X184.468Y-105.283
X186.754Y-49.276
X188.15Y-127.889
X188.278Y-61.976
X190.183Y-133.35
X191.452Y-159.702
X192.849Y-149.987
X198.183Y-144.272
T3
X127.953Y-123.698
X136.334Y-117.856
X171.132Y-112.014
T4
X47.18Y-96.52
X47.688Y-73.914
X48.45Y-100.584
X52.514Y-118.618
X53.53Y-37.338
X54.546Y-57.912
X55.816Y-40.132
X56.451Y-124.079
X60.642Y-110.236
X66.23Y-60.071
X67.754Y-55.626
X79.947Y-34.798
X80.073Y-36.893
X84.519Y-61.722
X84.519Y-63.5
X84.519Y-65.278
X84.519Y-67.056
X84.519Y-82.296
X85.026Y-122.936
X85.534Y-83.82
X86.296Y-59.436
X87.058Y-84.074
X87.884Y-40.831
X88.582Y-49.784
X88.837Y-84.074
X90.614Y-72.136
X90.614Y-84.074
X92.646Y-84.074
X93.408Y-69.596
X94.17Y-34.036
X94.932Y-83.82
X97.218Y-83.82
X99.504Y-83.82
X100.521Y-42.672
X101.79Y-83.82
X110.935Y-49.593
X113.729Y-72.898
X116.903Y-121.095
X117.665Y-125.476
X118.046Y-152.908
X119.825Y-144.018
X122.238Y-60.896
X122.364Y-153.416
X124.905Y-155.956
X125.158Y-146.812
X127.318Y-67.501
X130.619Y-73.66
X131.762Y-115.379
X133.223Y-116.396
X133.795Y-43.942
X162.497Y-30.226
X162.497Y-45.466
X165.036Y-30.226
X165.036Y-45.466
X167.576Y-30.226
X167.576Y-45.466
X170.117Y-30.226
X170.117Y-45.466
X172.656Y-30.226
X172.656Y-45.466
X175.196Y-30.226
X175.196Y-45.466
X177.736Y-30.226
X177.736Y-45.466
X180.277Y-30.226
X180.277Y-45.466
X182.816Y-30.226
X182.816Y-45.466
X184.721Y-103.124
X185.356Y-30.226
X185.356Y-45.466
X187.897Y-30.226
X187.897Y-45.466
X188.15Y-155.702
X190.437Y-30.226
X190.437Y-45.466
X192.976Y-30.226
X192.976Y-45.466
X195.516Y-30.226
X195.516Y-45.466
X198.057Y-30.226
X198.057Y-45.466
X198.557Y-78.166
X198.557Y-80.706
X198.557Y-83.246
X198.557Y-85.786
X198.557Y-88.326
X198.557Y-90.866
X198.557Y-93.406
X198.557Y-95.946
X200.596Y-30.226
X200.596Y-45.466
X201.358Y-104.14
X201.358Y-106.68
X201.358Y-109.22
X201.358Y-111.76
X201.358Y-114.3
X201.358Y-116.84
X201.358Y-119.38
X201.358Y-121.92
X201.486Y-76.2
X201.612Y-90.043
X203.136Y-30.226
X203.136Y-45.466
X203.772Y-84.074
X205.422Y-129.667
X205.677Y-30.226
X205.677Y-45.466
X206.177Y-78.166
X206.177Y-80.706
X206.177Y-83.246
X206.177Y-85.786
X206.177Y-88.326
X206.177Y-90.866
X206.177Y-93.406
X206.177Y-95.946
X208.217Y-30.226
X208.217Y-45.466
X208.979Y-104.14
X208.979Y-106.68
X208.979Y-109.22
X208.979Y-111.76
X208.979Y-114.3
X208.979Y-116.84
X208.979Y-119.38
X208.979Y-121.92
X210.248Y-98.298
X210.503Y-160.782
X210.756Y-30.226
X210.756Y-45.466
X212.408Y-79.883
X212.534Y-85.09
X214.185Y-97.917
X214.82Y-124.333
X215.201Y-119.761
T5
X48.484Y-45.466
X48.484Y-48.006
X50.482Y-45.466
X50.482Y-48.006
X80.454Y-109.474
X81.724Y-44.196
X84.264Y-44.196
X85.534Y-109.474
X93.408Y-109.474
X94.424Y-130.302
X94.424Y-139.446
X94.424Y-148.59
X94.424Y-157.48
X98.489Y-109.474
X99.504Y-130.302
X99.504Y-139.446
X99.504Y-148.59
X99.504Y-157.48
X103.569Y-130.302
X103.569Y-139.446
X103.569Y-148.59
X103.569Y-157.48
X108.649Y-130.302
X108.649Y-139.446
X108.649Y-148.59
X108.649Y-157.48
X112.712Y-130.302
X112.712Y-139.446
X112.712Y-148.59
X112.712Y-157.734
X117.792Y-130.302
X117.792Y-139.446
X117.792Y-148.59
X117.792Y-157.734
X121.857Y-130.302
X121.857Y-139.446
X121.857Y-148.59
X121.857Y-157.734
X126.937Y-130.302
X126.937Y-139.446
X126.937Y-148.59
X126.937Y-157.734
X130.747Y-134.874
X130.747Y-137.414
X130.747Y-139.954
X130.747Y-142.494
X130.747Y-145.034
X130.747Y-147.574
X130.747Y-150.114
X130.747Y-152.654
X130.747Y-155.194
X195.009Y-130.302
X195.009Y-139.446
X198.31Y-101.6
X198.31Y-104.14
X198.31Y-106.68
X198.31Y-109.22
X198.31Y-111.76
X198.31Y-114.3
X198.31Y-116.84
X198.31Y-119.38
X198.31Y-121.92
X200.088Y-130.302
X200.088Y-139.446
T6
X53.149Y-150.622
X55.054Y-153.924
X60.642Y-153.162
X69.787Y-153.924
X71.691Y-150.114
X74.993Y-113.919
X83.121Y-111.76
X86.169Y-107.315
X96.456Y-107.442
X189.547Y-79.883
X194.881Y-78.359
X210.122Y-130.683
X211.265Y-123.444
X213.551Y-128.016
T7
X48.199Y-60.961
X48.199Y-63.501
X48.199Y-65.533
X48.199Y-68.073
X89.355Y-76.2
X96.954Y-76.2
X194.795Y-146.67
X194.795Y-161.171
X197.295Y-161.171
X199.794Y-146.67
X199.794Y-161.171
T8
X41.338Y-103.378
X41.338Y-105.918
X41.338Y-108.458
X41.338Y-110.998
X41.338Y-113.538
X41.338Y-116.078
X42.1Y-121.666
X42.1Y-124.206
X42.1Y-129.286
X42.1Y-131.826
X42.1Y-136.906
X42.1Y-139.446
X44.64Y-121.666
X44.64Y-124.206
X44.64Y-129.286
X44.64Y-131.826
X44.64Y-136.906
X44.64Y-139.446
X44.895Y-106.172
X44.895Y-108.712
X44.895Y-111.252
X44.895Y-113.792
X47.18Y-121.666
X47.18Y-124.206
X47.18Y-129.286
X47.18Y-131.826
X47.18Y-136.906
X47.18Y-139.446
X49.721Y-121.666
X49.721Y-124.206
X49.721Y-129.286
X49.721Y-131.826
X49.721Y-136.906
X49.721Y-139.446
X51.546Y-159.766
X54.038Y-97.282
X54.546Y-159.766
X56.578Y-97.282
X57.546Y-159.766
X59.118Y-97.282
X61.658Y-97.282
X64.198Y-97.282
X64.96Y-159.258
X65.977Y-105.156
X65.977Y-107.696
X65.977Y-110.236
X65.977Y-112.776
X66.739Y-97.282
X67.501Y-159.258
X68.516Y-105.156
X68.516Y-107.696
X68.516Y-110.236
X68.516Y-112.776
X69.278Y-97.282
X71.819Y-97.282
X71.819Y-105.156
X71.819Y-107.696
X71.819Y-110.236
X71.819Y-112.776
X74.358Y-97.282
X76.898Y-97.282
X79.438Y-97.282
X80.454Y-143.002
X81.978Y-97.282
X82.995Y-143.002
X84.519Y-97.282
X85.534Y-143.002
X87.058Y-97.282
X89.599Y-97.282
X92.138Y-97.282
X94.679Y-97.282
X97.218Y-97.282
X99.758Y-97.282
X102.298Y-97.282
X110.741Y-68.56
X113.28Y-68.56
X115.821Y-68.56
X118.36Y-68.56
X138.62Y-75.946
X138.62Y-78.486
X138.62Y-81.026
X138.62Y-83.566
X138.62Y-86.106
X138.62Y-88.646
X138.62Y-91.186
X138.62Y-93.726
X138.62Y-96.266
X138.62Y-98.806
X138.62Y-101.346
X138.62Y-103.886
X138.62Y-106.426
X138.62Y-108.966
X138.62Y-111.506
X138.62Y-114.046
X138.62Y-116.586
X138.62Y-119.126
X138.62Y-121.666
X138.62Y-124.206
X138.62Y-126.746
X138.62Y-129.286
X138.62Y-131.826
X138.62Y-134.366
X138.62Y-136.906
X138.62Y-139.446
X138.62Y-141.986
X138.62Y-144.526
X138.62Y-147.066
X138.62Y-149.606
X138.62Y-152.146
X138.62Y-154.686
X141.024Y-157.916
X141.024Y-160.416
X141.16Y-75.946
X141.16Y-78.486
X141.16Y-81.026
X141.16Y-83.566
X141.16Y-86.106
X141.16Y-88.646
X141.16Y-91.186
X141.16Y-93.726
X141.16Y-96.266
X141.16Y-98.806
X141.16Y-101.346
X141.16Y-103.886
X141.16Y-106.426
X141.16Y-108.966
X141.16Y-111.506
X141.16Y-114.046
X141.16Y-116.586
X141.16Y-119.126
X141.16Y-121.666
X141.16Y-124.206
X141.16Y-126.746
X141.16Y-129.286
X141.16Y-131.826
X141.16Y-134.366
X141.16Y-136.906
X141.16Y-139.446
X141.16Y-141.986
X141.16Y-144.526
X141.16Y-147.066
X141.16Y-149.606
X141.16Y-152.146
X141.16Y-154.686
X143.564Y-157.916
X143.564Y-160.416
X146.105Y-157.916
X146.105Y-160.416
X148.644Y-157.916
X148.644Y-160.416
X151.184Y-157.916
X151.184Y-160.416
X153.725Y-157.916
X153.725Y-160.416
X156.265Y-157.916
X156.265Y-160.416
X158.804Y-157.916
X158.804Y-160.416
X161.344Y-157.916
X161.344Y-160.416
X163.885Y-157.916
X163.885Y-160.416
X166.424Y-157.916
X166.424Y-160.416
X168.964Y-157.916
X168.964Y-160.416
X171.504Y-157.916
X171.504Y-160.416
X174.045Y-157.916
X174.045Y-160.416
X176.584Y-157.916
X176.584Y-160.416
X179.006Y-75.946
X179.006Y-78.486
X179.006Y-81.026
X179.006Y-83.566
X179.006Y-86.106
X179.006Y-88.646
X179.006Y-91.186
X179.006Y-93.726
X179.006Y-96.266
X179.006Y-98.806
X179.006Y-101.346
X179.006Y-103.886
X179.006Y-106.426
X179.006Y-108.966
X179.006Y-111.506
X179.006Y-114.046
X179.006Y-116.586
X179.006Y-119.126
X179.006Y-121.666
X179.006Y-124.206
X179.006Y-126.746
X179.006Y-129.286
X179.006Y-131.826
X179.006Y-134.366
X179.006Y-136.906
X179.006Y-139.446
X179.006Y-141.986
X179.006Y-144.526
X179.006Y-147.066
X179.006Y-149.606
X179.006Y-152.146
X179.006Y-154.686
X179.124Y-157.916
X179.124Y-160.416
X181.546Y-75.946
X181.546Y-78.486
X181.546Y-81.026
X181.546Y-83.566
X181.546Y-86.106
X181.546Y-88.646
X181.546Y-91.186
X181.546Y-93.726
X181.546Y-96.266
X181.546Y-98.806
X181.546Y-101.346
X181.546Y-103.886
X181.546Y-106.426
X181.546Y-108.966
X181.546Y-111.506
X181.546Y-114.046
X181.546Y-116.586
X181.546Y-119.126
X181.546Y-121.666
X181.546Y-124.206
X181.546Y-126.746
X181.546Y-129.286
X181.546Y-131.826
X181.546Y-134.366
X181.546Y-136.906
X181.546Y-139.446
X181.546Y-141.986
X181.546Y-144.526
X181.546Y-147.066
X181.546Y-149.606
X181.546Y-152.146
X181.546Y-154.686
X194.628Y-102.87
X194.628Y-105.41
X194.628Y-107.95
X194.628Y-110.49
X194.628Y-113.03
X194.628Y-115.57
X194.628Y-118.11
X194.628Y-120.65
X208.217Y-133.096
X208.217Y-135.636
X208.217Y-138.176
X208.217Y-140.716
X208.217Y-143.256
X208.217Y-145.796
X208.217Y-148.336
X208.217Y-150.876
X217.742Y-98.171
X217.742Y-100.711
X217.742Y-103.251
X217.742Y-105.791
X217.742Y-114.046
X217.742Y-116.586
X217.742Y-119.126
X217.742Y-121.666
X217.742Y-124.206
T9
X200.041Y-69.166
X205.041Y-72.566
X210.041Y-69.166
T10
X72.834Y-159.258
X75.374Y-156.083
X77.833Y-159.258
X84.304Y-153.456
X84.304Y-155.956
X86.804Y-158.456
X89.304Y-153.456
X89.304Y-155.956
X104.117Y-108.498
X104.117Y-110.998
X106.617Y-113.498
X109.117Y-108.498
X109.117Y-110.998
X118.849Y-108.498
X118.849Y-110.998
X121.349Y-113.498
X123.849Y-108.498
X123.849Y-110.998
T11
X48.45Y-31.75
X50.99Y-31.75
X53.53Y-31.75
X56.07Y-31.75
X58.61Y-31.75
X61.15Y-31.75
X63.691Y-31.75
X66.23Y-31.75
X68.77Y-31.75
X71.31Y-31.75
X73.85Y-31.75
X76.391Y-31.75
X78.93Y-31.75
X81.471Y-31.75
X84.01Y-31.75
X86.551Y-31.75
T12
X44.038Y-79.042
X44.038Y-87.042
T13
X193.866Y-59.69
X195.867Y-53.691
X195.867Y-65.689
X207.866Y-53.691
X207.866Y-65.689
X215.582Y-54.61
X215.582Y-59.69
X215.582Y-64.77
X215.837Y-77.216
X215.837Y-82.296
X215.837Y-87.376
X215.837Y-92.456
T14
X191.094Y-153.67
X203.495Y-153.67
T15
X45.532Y-57.405
X45.532Y-71.121
X45.783Y-40.737
X45.783Y-52.735
T16
X42.951Y-31.75
X42.951Y-62.751
X117.95Y-31.75
X117.95Y-62.751
T8
X42.355Y-147.828G85X42.355Y-149.352
G05
X44.093Y-153.67G85X45.616Y-153.67
G05
X48.45Y-147.828G85X48.45Y-149.352
G05
X49.146Y-160.758G85X49.146Y-158.774
G05
X59.947Y-160.758G85X59.947Y-158.774
G05
T0
M30
