G04 #@! TF.FileFunction,Soldermask,Top*
%FSLAX46Y46*%
G04 Gerber Fmt 4.6, Leading zero omitted, Abs format (unit mm)*
G04 Created by KiCad (PCBNEW (2015-01-16 BZR 5376)-product) date 03-Jul-17 11:47:44 AM*
%MOMM*%
G01*
G04 APERTURE LIST*
%ADD10C,0.100000*%
%ADD11R,1.000000X0.900000*%
%ADD12C,2.499360*%
%ADD13O,1.800000X2.600000*%
%ADD14C,3.000000*%
%ADD15O,1.727200X2.032000*%
%ADD16C,1.524000*%
%ADD17C,3.500000*%
%ADD18O,2.032000X1.727200*%
%ADD19R,2.032000X1.727200*%
%ADD20R,1.727200X1.727200*%
%ADD21O,1.727200X1.727200*%
%ADD22C,1.501140*%
%ADD23C,2.999740*%
%ADD24C,2.032000*%
%ADD25O,2.032000X2.032000*%
%ADD26R,3.500120X2.400300*%
%ADD27R,2.300000X2.300000*%
%ADD28C,2.500000*%
%ADD29O,1.651000X4.000000*%
%ADD30O,1.524000X2.524000*%
%ADD31R,0.750000X1.200000*%
%ADD32C,4.800600*%
%ADD33R,4.800600X4.800600*%
%ADD34R,1.800000X1.800000*%
%ADD35R,0.797560X0.797560*%
%ADD36R,1.000760X2.499360*%
%ADD37R,2.999740X2.499360*%
%ADD38O,2.300000X1.600000*%
%ADD39R,2.540000X2.540000*%
%ADD40C,2.540000*%
%ADD41C,3.200000*%
%ADD42R,1.200000X0.900000*%
%ADD43R,0.900000X1.200000*%
%ADD44R,1.500000X0.700000*%
%ADD45R,1.500000X1.500000*%
%ADD46R,2.500000X2.000000*%
%ADD47C,1.600000*%
%ADD48C,2.000000*%
%ADD49R,1.000760X0.231140*%
%ADD50R,0.231140X1.000760*%
%ADD51R,1.501140X1.501140*%
%ADD52C,0.299720*%
%ADD53C,1.397000*%
%ADD54R,3.000000X5.000000*%
%ADD55R,1.200000X0.750000*%
%ADD56R,1.397000X1.397000*%
%ADD57O,1.501140X1.998980*%
%ADD58C,3.500120*%
%ADD59R,1.550000X0.600000*%
%ADD60R,1.200000X0.400000*%
%ADD61R,0.800100X0.800100*%
%ADD62R,1.800860X2.500000*%
G04 APERTURE END LIST*
D10*
X215556500Y-163166000D02*
X43556500Y-163166000D01*
X39556500Y-159166000D02*
X39556500Y-32166000D01*
X219556500Y-32166000D02*
X219556500Y-159166000D01*
X43556500Y-28166000D02*
X215556500Y-28166000D01*
X39556500Y-159166000D02*
G75*
G03X43556500Y-163166000I4000000J0D01*
G01*
X215556500Y-163166000D02*
G75*
G03X219556500Y-159166000I0J4000000D01*
G01*
X219556500Y-32166000D02*
G75*
G03X215556500Y-28166000I-4000000J0D01*
G01*
X43556500Y-28166000D02*
G75*
G03X39556500Y-32166000I0J-4000000D01*
G01*
D11*
X161480500Y-57404000D03*
X157924500Y-57404000D03*
X157924500Y-59512200D03*
X161493500Y-59499000D03*
D12*
X75374500Y-156083000D03*
X77833220Y-159258000D03*
X72834500Y-159258000D03*
D13*
X48450500Y-31750000D03*
X50990500Y-31750000D03*
X53530500Y-31750000D03*
X56070500Y-31750000D03*
X58610500Y-31750000D03*
X61150500Y-31750000D03*
X63690500Y-31750000D03*
X66230500Y-31750000D03*
X68770500Y-31750000D03*
X71310500Y-31750000D03*
X73850500Y-31750000D03*
X76390500Y-31750000D03*
X78930500Y-31750000D03*
X81470500Y-31750000D03*
X84010500Y-31750000D03*
X86550500Y-31750000D03*
D14*
X42951400Y-31750000D03*
X42951400Y-62750700D03*
X117949980Y-62750700D03*
X117949980Y-31750000D03*
D15*
X102298500Y-97282000D03*
X99758500Y-97282000D03*
X97218500Y-97282000D03*
X94678500Y-97282000D03*
X92138500Y-97282000D03*
X89598500Y-97282000D03*
X87058500Y-97282000D03*
X84518500Y-97282000D03*
X81978500Y-97282000D03*
X79438500Y-97282000D03*
X76898500Y-97282000D03*
X74358500Y-97282000D03*
X71818500Y-97282000D03*
X69278500Y-97282000D03*
X66738500Y-97282000D03*
X64198500Y-97282000D03*
X61658500Y-97282000D03*
X59118500Y-97282000D03*
X56578500Y-97282000D03*
X54038500Y-97282000D03*
D16*
X50482500Y-45466000D03*
X50482500Y-48006000D03*
X48483520Y-48006000D03*
X48483520Y-45466000D03*
D17*
X45783500Y-40736520D03*
X45783500Y-52735480D03*
D18*
X71818500Y-105156000D03*
X71818500Y-107696000D03*
X71818500Y-110236000D03*
X71818500Y-112776000D03*
X194627500Y-120650000D03*
X194627500Y-118110000D03*
X194627500Y-115570000D03*
X194627500Y-113030000D03*
X194627500Y-110490000D03*
X194627500Y-107950000D03*
X194627500Y-105410000D03*
X194627500Y-102870000D03*
X208216500Y-150876000D03*
X208216500Y-148336000D03*
X208216500Y-145796000D03*
X208216500Y-143256000D03*
X208216500Y-140716000D03*
X208216500Y-138176000D03*
X208216500Y-135636000D03*
X208216500Y-133096000D03*
X138620500Y-75946000D03*
X138620500Y-78486000D03*
X138620500Y-81026000D03*
X138620500Y-83566000D03*
X138620500Y-86106000D03*
X138620500Y-88646000D03*
X138620500Y-91186000D03*
X138620500Y-93726000D03*
X138620500Y-96266000D03*
X138620500Y-98806000D03*
X138620500Y-101346000D03*
X138620500Y-103886000D03*
X138620500Y-106426000D03*
X138620500Y-108966000D03*
X138620500Y-111506000D03*
X138620500Y-114046000D03*
X138620500Y-116586000D03*
X138620500Y-119126000D03*
X138620500Y-121666000D03*
X138620500Y-124206000D03*
X138620500Y-126746000D03*
X138620500Y-129286000D03*
X138620500Y-131826000D03*
X138620500Y-134366000D03*
X138620500Y-136906000D03*
X138620500Y-139446000D03*
X138620500Y-141986000D03*
X138620500Y-144526000D03*
X138620500Y-147066000D03*
X138620500Y-149606000D03*
X138620500Y-152146000D03*
X138620500Y-154686000D03*
D19*
X41338500Y-116078000D03*
D18*
X41338500Y-113538000D03*
X41338500Y-110998000D03*
X41338500Y-108458000D03*
X41338500Y-105918000D03*
X41338500Y-103378000D03*
D20*
X42100500Y-124206000D03*
D21*
X42100500Y-121666000D03*
X44640500Y-124206000D03*
X44640500Y-121666000D03*
X47180500Y-124206000D03*
X47180500Y-121666000D03*
X49720500Y-124206000D03*
X49720500Y-121666000D03*
D20*
X42100500Y-131826000D03*
D21*
X42100500Y-129286000D03*
X44640500Y-131826000D03*
X44640500Y-129286000D03*
X47180500Y-131826000D03*
X47180500Y-129286000D03*
X49720500Y-131826000D03*
X49720500Y-129286000D03*
D20*
X42100500Y-139446000D03*
D21*
X42100500Y-136906000D03*
X44640500Y-139446000D03*
X44640500Y-136906000D03*
X47180500Y-139446000D03*
X47180500Y-136906000D03*
X49720500Y-139446000D03*
X49720500Y-136906000D03*
D15*
X110740500Y-68560000D03*
X113280500Y-68560000D03*
X115820500Y-68560000D03*
X118360500Y-68560000D03*
X80454500Y-143002000D03*
X82994500Y-143002000D03*
X85534500Y-143002000D03*
D22*
X48198620Y-68072860D03*
X48198620Y-65532860D03*
X48198620Y-63500860D03*
X48198620Y-60960860D03*
D23*
X45531620Y-71120860D03*
X45531620Y-57404860D03*
D24*
X64960500Y-159258000D03*
D25*
X67500500Y-159258000D03*
D26*
X57137300Y-147066000D03*
X63639700Y-147066000D03*
D18*
X217741500Y-124206000D03*
X217741500Y-121666000D03*
X217741500Y-119126000D03*
X217741500Y-116586000D03*
X217741500Y-114046000D03*
X217741500Y-105791000D03*
X217741500Y-103251000D03*
X217741500Y-100711000D03*
X217741500Y-98171000D03*
X44894500Y-113792000D03*
X44894500Y-111252000D03*
X44894500Y-108712000D03*
X44894500Y-106172000D03*
D15*
X141024500Y-160416000D03*
X143564500Y-160416000D03*
X146104500Y-160416000D03*
X148644500Y-160416000D03*
X151184500Y-160416000D03*
X153724500Y-160416000D03*
X156264500Y-160416000D03*
X158804500Y-160416000D03*
X161344500Y-160416000D03*
X163884500Y-160416000D03*
X166424500Y-160416000D03*
X168964500Y-160416000D03*
X171504500Y-160416000D03*
X174044500Y-160416000D03*
X176584500Y-160416000D03*
X179124500Y-160416000D03*
X141024500Y-157916000D03*
X143564500Y-157916000D03*
X146104500Y-157916000D03*
X148644500Y-157916000D03*
X151184500Y-157916000D03*
X153724500Y-157916000D03*
X156264500Y-157916000D03*
X158804500Y-157916000D03*
X161344500Y-157916000D03*
X163884500Y-157916000D03*
X166424500Y-157916000D03*
X168964500Y-157916000D03*
X171504500Y-157916000D03*
X174044500Y-157916000D03*
X176584500Y-157916000D03*
X179124500Y-157916000D03*
D18*
X181546500Y-75946000D03*
X181546500Y-78486000D03*
X181546500Y-81026000D03*
X181546500Y-83566000D03*
X181546500Y-86106000D03*
X181546500Y-88646000D03*
X181546500Y-91186000D03*
X181546500Y-93726000D03*
X181546500Y-96266000D03*
X181546500Y-98806000D03*
X181546500Y-101346000D03*
X181546500Y-103886000D03*
X181546500Y-106426000D03*
X181546500Y-108966000D03*
X181546500Y-111506000D03*
X181546500Y-114046000D03*
X181546500Y-116586000D03*
X181546500Y-119126000D03*
X181546500Y-121666000D03*
X181546500Y-124206000D03*
X181546500Y-126746000D03*
X181546500Y-129286000D03*
X181546500Y-131826000D03*
X181546500Y-134366000D03*
X181546500Y-136906000D03*
X181546500Y-139446000D03*
X181546500Y-141986000D03*
X181546500Y-144526000D03*
X181546500Y-147066000D03*
X181546500Y-149606000D03*
X181546500Y-152146000D03*
X181546500Y-154686000D03*
X179006500Y-75946000D03*
X179006500Y-78486000D03*
X179006500Y-81026000D03*
X179006500Y-83566000D03*
X179006500Y-86106000D03*
X179006500Y-88646000D03*
X179006500Y-91186000D03*
X179006500Y-93726000D03*
X179006500Y-96266000D03*
X179006500Y-98806000D03*
X179006500Y-101346000D03*
X179006500Y-103886000D03*
X179006500Y-106426000D03*
X179006500Y-108966000D03*
X179006500Y-111506000D03*
X179006500Y-114046000D03*
X179006500Y-116586000D03*
X179006500Y-119126000D03*
X179006500Y-121666000D03*
X179006500Y-124206000D03*
X179006500Y-126746000D03*
X179006500Y-129286000D03*
X179006500Y-131826000D03*
X179006500Y-134366000D03*
X179006500Y-136906000D03*
X179006500Y-139446000D03*
X179006500Y-141986000D03*
X179006500Y-144526000D03*
X179006500Y-147066000D03*
X179006500Y-149606000D03*
X179006500Y-152146000D03*
X179006500Y-154686000D03*
X141160500Y-75946000D03*
X141160500Y-78486000D03*
X141160500Y-81026000D03*
X141160500Y-83566000D03*
X141160500Y-86106000D03*
X141160500Y-88646000D03*
X141160500Y-91186000D03*
X141160500Y-93726000D03*
X141160500Y-96266000D03*
X141160500Y-98806000D03*
X141160500Y-101346000D03*
X141160500Y-103886000D03*
X141160500Y-106426000D03*
X141160500Y-108966000D03*
X141160500Y-111506000D03*
X141160500Y-114046000D03*
X141160500Y-116586000D03*
X141160500Y-119126000D03*
X141160500Y-121666000D03*
X141160500Y-124206000D03*
X141160500Y-126746000D03*
X141160500Y-129286000D03*
X141160500Y-131826000D03*
X141160500Y-134366000D03*
X141160500Y-136906000D03*
X141160500Y-139446000D03*
X141160500Y-141986000D03*
X141160500Y-144526000D03*
X141160500Y-147066000D03*
X141160500Y-149606000D03*
X141160500Y-152146000D03*
X141160500Y-154686000D03*
D20*
X65976500Y-105156000D03*
D21*
X68516500Y-105156000D03*
X65976500Y-107696000D03*
X68516500Y-107696000D03*
X65976500Y-110236000D03*
X68516500Y-110236000D03*
X65976500Y-112776000D03*
X68516500Y-112776000D03*
D27*
X57546500Y-159766000D03*
D28*
X54546500Y-159766000D03*
X51546500Y-159766000D03*
D29*
X49146460Y-159766000D03*
X59946540Y-159766000D03*
D30*
X162496500Y-45466000D03*
X165036500Y-45466000D03*
X167576500Y-45466000D03*
X170116500Y-45466000D03*
X172656500Y-45466000D03*
X172656500Y-30226000D03*
X170116500Y-30226000D03*
X167576500Y-30226000D03*
X165036500Y-30226000D03*
X162496500Y-30226000D03*
D31*
X70929500Y-82103000D03*
X70929500Y-80203000D03*
X56578500Y-52898000D03*
X56578500Y-54798000D03*
X58610500Y-52898000D03*
X58610500Y-54798000D03*
D32*
X42354500Y-148590000D03*
D33*
X48450500Y-148590000D03*
D32*
X44854500Y-153670000D03*
D34*
X74172500Y-144018000D03*
X69972500Y-144018000D03*
D35*
X53543200Y-152400000D03*
X55041800Y-152400000D03*
X183070500Y-58686700D03*
X183070500Y-60185300D03*
X217119200Y-133350000D03*
X218617800Y-133350000D03*
X217119200Y-135890000D03*
X218617800Y-135890000D03*
X217119200Y-138430000D03*
X218617800Y-138430000D03*
X217119200Y-140970000D03*
X218617800Y-140970000D03*
D36*
X60896500Y-138640820D03*
X63146940Y-138640820D03*
X58646060Y-138640820D03*
D37*
X60896500Y-132890260D03*
D36*
X71056500Y-138640820D03*
X73306940Y-138640820D03*
X68806060Y-138640820D03*
D37*
X71056500Y-132890260D03*
D38*
X198556500Y-78166000D03*
X198556500Y-80706000D03*
X198556500Y-83246000D03*
X198556500Y-85786000D03*
X198556500Y-88326000D03*
X198556500Y-90866000D03*
X198556500Y-93406000D03*
X198556500Y-95946000D03*
X206176500Y-95946000D03*
X206176500Y-93406000D03*
X206176500Y-90866000D03*
X206176500Y-88326000D03*
X206176500Y-85786000D03*
X206176500Y-83246000D03*
X206176500Y-80706000D03*
X206176500Y-78166000D03*
D39*
X215836500Y-92456000D03*
D40*
X215836500Y-87376000D03*
D39*
X215836500Y-82296000D03*
D40*
X215836500Y-77216000D03*
X195867020Y-53690520D03*
X193865500Y-59690000D03*
X207865980Y-53690520D03*
X207865980Y-65689480D03*
X195867020Y-65689480D03*
D39*
X215582500Y-64770000D03*
D40*
X215582500Y-59690000D03*
X215582500Y-54610000D03*
D41*
X216056500Y-159666000D03*
X43056500Y-31666000D03*
X43056500Y-159666000D03*
X216056500Y-31666000D03*
D42*
X188742500Y-159766000D03*
X186542500Y-159766000D03*
X60812500Y-77216000D03*
X63012500Y-77216000D03*
X58526500Y-88900000D03*
X60726500Y-88900000D03*
X67330500Y-153670000D03*
X65130500Y-153670000D03*
X90698500Y-112014000D03*
X88498500Y-112014000D03*
X84094500Y-104902000D03*
X81894500Y-104902000D03*
X185145500Y-64008000D03*
X187345500Y-64008000D03*
X98064500Y-68072000D03*
X95864500Y-68072000D03*
D43*
X202882500Y-131402000D03*
X202882500Y-129202000D03*
X202882500Y-137711000D03*
X202882500Y-139911000D03*
D42*
X67330500Y-156210000D03*
X65130500Y-156210000D03*
X91546500Y-31750000D03*
X93746500Y-31750000D03*
X152506500Y-56896000D03*
X154706500Y-56896000D03*
X152506500Y-59690000D03*
X154706500Y-59690000D03*
X168930500Y-59436000D03*
X166730500Y-59436000D03*
X212196500Y-133350000D03*
X214396500Y-133350000D03*
X212196500Y-135890000D03*
X214396500Y-135890000D03*
X212196500Y-138430000D03*
X214396500Y-138430000D03*
X212196500Y-140970000D03*
X214396500Y-140970000D03*
D44*
X54838500Y-86442000D03*
X54838500Y-85342000D03*
X54838500Y-84242000D03*
X54838500Y-83142000D03*
X54838500Y-82042000D03*
X54838500Y-80942000D03*
X54838500Y-79842000D03*
X54838500Y-78742000D03*
X54838500Y-77642000D03*
D45*
X53138500Y-76242000D03*
X53238500Y-91642000D03*
D46*
X44038500Y-76042000D03*
X44038500Y-93042000D03*
D47*
X44038500Y-79042000D03*
X44038500Y-87042000D03*
D48*
X96954340Y-76200000D03*
X89354660Y-76200000D03*
D49*
X56619140Y-48237140D03*
X56619140Y-47736760D03*
X56619140Y-47236380D03*
X56619140Y-46736000D03*
X56619140Y-46235620D03*
X56619140Y-45735240D03*
X56619140Y-45234860D03*
D50*
X57617360Y-44236640D03*
X58117740Y-44236640D03*
X58618120Y-44236640D03*
X59118500Y-44236640D03*
X59618880Y-44236640D03*
X60119260Y-44236640D03*
X60619640Y-44236640D03*
D49*
X61617860Y-45234860D03*
X61617860Y-45735240D03*
X61617860Y-46235620D03*
X61617860Y-46736000D03*
X61617860Y-47236380D03*
X61617860Y-47736760D03*
X61617860Y-48237140D03*
D50*
X60619640Y-49235360D03*
X60119260Y-49235360D03*
X59618880Y-49235360D03*
X59118500Y-49235360D03*
X58618120Y-49235360D03*
X58117740Y-49235360D03*
X57617360Y-49235360D03*
D51*
X59118500Y-46736000D03*
D52*
X56868060Y-44485560D03*
D35*
X88849200Y-108204000D03*
X90347800Y-108204000D03*
D42*
X97048500Y-104902000D03*
X94848500Y-104902000D03*
D24*
X205041500Y-72566000D03*
X200041500Y-69166000D03*
X210041500Y-69166000D03*
D53*
X84264500Y-44196000D03*
X81724500Y-44196000D03*
D54*
X82994500Y-50196000D03*
D42*
X95102500Y-52578000D03*
X97302500Y-52578000D03*
X95102500Y-50038000D03*
X97302500Y-50038000D03*
D55*
X60576500Y-90932000D03*
X58676500Y-90932000D03*
D30*
X175196500Y-45466000D03*
X177736500Y-45466000D03*
X180276500Y-45466000D03*
X182816500Y-45466000D03*
X185356500Y-45466000D03*
X185356500Y-30226000D03*
X182816500Y-30226000D03*
X180276500Y-30226000D03*
X177736500Y-30226000D03*
X175196500Y-30226000D03*
X187896500Y-45466000D03*
X190436500Y-45466000D03*
X192976500Y-45466000D03*
X195516500Y-45466000D03*
X198056500Y-45466000D03*
X198056500Y-30226000D03*
X195516500Y-30226000D03*
X192976500Y-30226000D03*
X190436500Y-30226000D03*
X187896500Y-30226000D03*
X200596500Y-45466000D03*
X203136500Y-45466000D03*
X205676500Y-45466000D03*
X208216500Y-45466000D03*
X210756500Y-45466000D03*
X210756500Y-30226000D03*
X208216500Y-30226000D03*
X205676500Y-30226000D03*
X203136500Y-30226000D03*
X200596500Y-30226000D03*
D55*
X186565500Y-157734000D03*
X188465500Y-157734000D03*
X208150500Y-161290000D03*
X206250500Y-161290000D03*
D35*
X217119200Y-143510000D03*
X218617800Y-143510000D03*
X217119200Y-146050000D03*
X218617800Y-146050000D03*
X217119200Y-148590000D03*
X218617800Y-148590000D03*
X217119200Y-151130000D03*
X218617800Y-151130000D03*
D42*
X212196500Y-143510000D03*
X214396500Y-143510000D03*
X212196500Y-146050000D03*
X214396500Y-146050000D03*
X212196500Y-148590000D03*
X214396500Y-148590000D03*
X212196500Y-151130000D03*
X214396500Y-151130000D03*
X206354500Y-159004000D03*
X208554500Y-159004000D03*
X208554500Y-156718000D03*
X206354500Y-156718000D03*
X164231500Y-48641000D03*
X162031500Y-48641000D03*
X164358500Y-50800000D03*
X162158500Y-50800000D03*
X177566500Y-48641000D03*
X175366500Y-48641000D03*
X177566500Y-50800000D03*
X175366500Y-50800000D03*
X191536500Y-48641000D03*
X189336500Y-48641000D03*
X191536500Y-50800000D03*
X189336500Y-50800000D03*
X204871500Y-48641000D03*
X202671500Y-48641000D03*
X204871500Y-50800000D03*
X202671500Y-50800000D03*
D56*
X130746500Y-134874000D03*
D53*
X130746500Y-137414000D03*
X130746500Y-139954000D03*
X130746500Y-142494000D03*
X130746500Y-145034000D03*
X130746500Y-147574000D03*
X130746500Y-150114000D03*
X130746500Y-152654000D03*
X130746500Y-155194000D03*
D56*
X198310500Y-101600000D03*
D53*
X198310500Y-104140000D03*
X198310500Y-106680000D03*
X198310500Y-109220000D03*
X198310500Y-111760000D03*
X198310500Y-114300000D03*
X198310500Y-116840000D03*
X198310500Y-119380000D03*
X198310500Y-121920000D03*
D38*
X201358500Y-104140000D03*
X201358500Y-106680000D03*
X201358500Y-109220000D03*
X201358500Y-111760000D03*
X201358500Y-114300000D03*
X201358500Y-116840000D03*
X201358500Y-119380000D03*
X201358500Y-121920000D03*
X208978500Y-121920000D03*
X208978500Y-119380000D03*
X208978500Y-116840000D03*
X208978500Y-114300000D03*
X208978500Y-111760000D03*
X208978500Y-109220000D03*
X208978500Y-106680000D03*
X208978500Y-104140000D03*
D57*
X194795140Y-161170620D03*
X197294500Y-161170620D03*
X199793860Y-161170620D03*
D58*
X191094360Y-153670000D03*
X203494640Y-153670000D03*
D57*
X194795140Y-146669760D03*
X199793860Y-146669760D03*
D42*
X59710500Y-38608000D03*
X57510500Y-38608000D03*
X61234500Y-40640000D03*
X59034500Y-40640000D03*
D59*
X103916500Y-43561000D03*
X103916500Y-44831000D03*
X103916500Y-46101000D03*
X103916500Y-47371000D03*
X109316500Y-47371000D03*
X109316500Y-46101000D03*
X109316500Y-44831000D03*
X109316500Y-43561000D03*
X89692500Y-43561000D03*
X89692500Y-44831000D03*
X89692500Y-46101000D03*
X89692500Y-47371000D03*
X95092500Y-47371000D03*
X95092500Y-46101000D03*
X95092500Y-44831000D03*
X95092500Y-43561000D03*
D60*
X60748500Y-80600000D03*
X60748500Y-81250000D03*
X60748500Y-81900000D03*
X60748500Y-82550000D03*
X60748500Y-83200000D03*
X60748500Y-83850000D03*
X60748500Y-84500000D03*
X67648500Y-84500000D03*
X67648500Y-83850000D03*
X67648500Y-83200000D03*
X67648500Y-82550000D03*
X67648500Y-81900000D03*
X67648500Y-81250000D03*
X67648500Y-80600000D03*
D12*
X86804500Y-158456000D03*
X84304500Y-155956000D03*
X89304500Y-155956000D03*
X84304500Y-153456000D03*
X89304500Y-153456000D03*
X106616500Y-113498000D03*
X104116500Y-110998000D03*
X109116500Y-110998000D03*
X104116500Y-108498000D03*
X109116500Y-108498000D03*
X121348500Y-113498000D03*
X118848500Y-110998000D03*
X123848500Y-110998000D03*
X118848500Y-108498000D03*
X123848500Y-108498000D03*
D53*
X195008500Y-130302000D03*
X200088500Y-130302000D03*
X195008500Y-139446000D03*
X200088500Y-139446000D03*
X85534500Y-109474000D03*
X80454500Y-109474000D03*
X98488500Y-109474000D03*
X93408500Y-109474000D03*
X94424500Y-130302000D03*
X99504500Y-130302000D03*
X103568500Y-130302000D03*
X108648500Y-130302000D03*
X112712500Y-130302000D03*
X117792500Y-130302000D03*
X121856500Y-130302000D03*
X126936500Y-130302000D03*
X94424500Y-139446000D03*
X99504500Y-139446000D03*
X103568500Y-139446000D03*
X108648500Y-139446000D03*
X112712500Y-139446000D03*
X117792500Y-139446000D03*
X121856500Y-139446000D03*
X126936500Y-139446000D03*
X94424500Y-148590000D03*
X99504500Y-148590000D03*
X103568500Y-148590000D03*
X108648500Y-148590000D03*
X112712500Y-148590000D03*
X117792500Y-148590000D03*
X121856500Y-148590000D03*
X126936500Y-148590000D03*
X94424500Y-157480000D03*
X99504500Y-157480000D03*
X103568500Y-157480000D03*
X108648500Y-157480000D03*
X112712500Y-157734000D03*
X117792500Y-157734000D03*
X121856500Y-157734000D03*
X126936500Y-157734000D03*
D42*
X185313500Y-55753000D03*
X183113500Y-55753000D03*
D61*
X185041500Y-61325760D03*
X186941500Y-61325760D03*
X185991500Y-59326780D03*
X88902500Y-68056760D03*
X90802500Y-68056760D03*
X89852500Y-66057780D03*
X169339260Y-50607000D03*
X169339260Y-48707000D03*
X167340280Y-49657000D03*
X182674260Y-50734000D03*
X182674260Y-48834000D03*
X180675280Y-49784000D03*
X196136260Y-50480000D03*
X196136260Y-48580000D03*
X194137280Y-49530000D03*
X209598260Y-50734000D03*
X209598260Y-48834000D03*
X207599280Y-49784000D03*
D62*
X190563500Y-63078360D03*
X190563500Y-58079640D03*
M02*
