G04 #@! TF.FileFunction,Legend,Bot*
%FSLAX46Y46*%
G04 Gerber Fmt 4.6, Leading zero omitted, Abs format (unit mm)*
G04 Created by KiCad (PCBNEW (2015-01-16 BZR 5376)-product) date 03-Jul-17 11:47:44 AM*
%MOMM*%
G01*
G04 APERTURE LIST*
%ADD10C,0.100000*%
%ADD11C,0.300000*%
%ADD12C,0.500000*%
%ADD13C,0.002540*%
%ADD14C,2.499360*%
%ADD15O,1.800000X2.600000*%
%ADD16C,3.000000*%
%ADD17O,1.727200X2.032000*%
%ADD18C,1.524000*%
%ADD19C,3.500000*%
%ADD20O,2.032000X1.727200*%
%ADD21R,2.032000X1.727200*%
%ADD22R,1.727200X1.727200*%
%ADD23O,1.727200X1.727200*%
%ADD24C,1.501140*%
%ADD25C,2.999740*%
%ADD26C,2.032000*%
%ADD27O,2.032000X2.032000*%
%ADD28R,2.300000X2.300000*%
%ADD29C,2.500000*%
%ADD30O,1.651000X4.000000*%
%ADD31O,1.524000X2.524000*%
%ADD32C,4.800600*%
%ADD33R,4.800600X4.800600*%
%ADD34O,2.300000X1.600000*%
%ADD35R,2.540000X2.540000*%
%ADD36C,2.540000*%
%ADD37C,3.200000*%
%ADD38C,1.600000*%
%ADD39C,2.000000*%
%ADD40C,1.397000*%
%ADD41R,1.397000X1.397000*%
%ADD42O,1.501140X1.998980*%
%ADD43C,3.500120*%
G04 APERTURE END LIST*
D10*
D11*
X140102956Y-39073971D02*
X139745813Y-40073971D01*
X139388671Y-39073971D01*
X138531528Y-38573971D02*
X138388671Y-38573971D01*
X138245814Y-38645400D01*
X138174385Y-38716829D01*
X138102956Y-38859686D01*
X138031528Y-39145400D01*
X138031528Y-39502543D01*
X138102956Y-39788257D01*
X138174385Y-39931114D01*
X138245814Y-40002543D01*
X138388671Y-40073971D01*
X138531528Y-40073971D01*
X138674385Y-40002543D01*
X138745814Y-39931114D01*
X138817242Y-39788257D01*
X138888671Y-39502543D01*
X138888671Y-39145400D01*
X138817242Y-38859686D01*
X138745814Y-38716829D01*
X138674385Y-38645400D01*
X138531528Y-38573971D01*
X137388671Y-39931114D02*
X137317243Y-40002543D01*
X137388671Y-40073971D01*
X137460100Y-40002543D01*
X137388671Y-39931114D01*
X137388671Y-40073971D01*
X136817242Y-38573971D02*
X135888671Y-38573971D01*
X136388671Y-39145400D01*
X136174385Y-39145400D01*
X136031528Y-39216829D01*
X135960099Y-39288257D01*
X135888671Y-39431114D01*
X135888671Y-39788257D01*
X135960099Y-39931114D01*
X136031528Y-40002543D01*
X136174385Y-40073971D01*
X136602957Y-40073971D01*
X136745814Y-40002543D01*
X136817242Y-39931114D01*
D10*
X215556500Y-163166000D02*
X43556500Y-163166000D01*
D12*
X149042216Y-56051714D02*
X148042216Y-56051714D01*
X147613645Y-57623143D02*
X149042216Y-57623143D01*
X149042216Y-54623143D01*
X147613645Y-54623143D01*
X146613645Y-57623143D02*
X145042216Y-55623143D01*
X146613645Y-55623143D02*
X145042216Y-57623143D01*
X143899359Y-55623143D02*
X143899359Y-58623143D01*
X143899359Y-55766000D02*
X143613645Y-55623143D01*
X143042216Y-55623143D01*
X142756502Y-55766000D01*
X142613645Y-55908857D01*
X142470788Y-56194571D01*
X142470788Y-57051714D01*
X142613645Y-57337429D01*
X142756502Y-57480286D01*
X143042216Y-57623143D01*
X143613645Y-57623143D01*
X143899359Y-57480286D01*
X140756502Y-57623143D02*
X141042216Y-57480286D01*
X141185073Y-57194571D01*
X141185073Y-54623143D01*
X139185073Y-57623143D02*
X139470787Y-57480286D01*
X139613644Y-57337429D01*
X139756501Y-57051714D01*
X139756501Y-56194571D01*
X139613644Y-55908857D01*
X139470787Y-55766000D01*
X139185073Y-55623143D01*
X138756501Y-55623143D01*
X138470787Y-55766000D01*
X138327930Y-55908857D01*
X138185073Y-56194571D01*
X138185073Y-57051714D01*
X138327930Y-57337429D01*
X138470787Y-57480286D01*
X138756501Y-57623143D01*
X139185073Y-57623143D01*
X136899358Y-57623143D02*
X136899358Y-55623143D01*
X136899358Y-56194571D02*
X136756501Y-55908857D01*
X136613644Y-55766000D01*
X136327930Y-55623143D01*
X136042215Y-55623143D01*
X133899358Y-57480286D02*
X134185072Y-57623143D01*
X134756501Y-57623143D01*
X135042215Y-57480286D01*
X135185072Y-57194571D01*
X135185072Y-56051714D01*
X135042215Y-55766000D01*
X134756501Y-55623143D01*
X134185072Y-55623143D01*
X133899358Y-55766000D01*
X133756501Y-56051714D01*
X133756501Y-56337429D01*
X135185072Y-56623143D01*
X132470786Y-56051714D02*
X131470786Y-56051714D01*
X131042215Y-57623143D02*
X132470786Y-57623143D01*
X132470786Y-54623143D01*
X131042215Y-54623143D01*
X129756500Y-57623143D02*
X129756500Y-55623143D01*
X129756500Y-55908857D02*
X129613643Y-55766000D01*
X129327929Y-55623143D01*
X128899357Y-55623143D01*
X128613643Y-55766000D01*
X128470786Y-56051714D01*
X128470786Y-57623143D01*
X128470786Y-56051714D02*
X128327929Y-55766000D01*
X128042215Y-55623143D01*
X127613643Y-55623143D01*
X127327929Y-55766000D01*
X127185072Y-56051714D01*
X127185072Y-57623143D01*
X125756500Y-57623143D02*
X125756500Y-54623143D01*
X125756500Y-55766000D02*
X125470786Y-55623143D01*
X124899357Y-55623143D01*
X124613643Y-55766000D01*
X124470786Y-55908857D01*
X124327929Y-56194571D01*
X124327929Y-57051714D01*
X124470786Y-57337429D01*
X124613643Y-57480286D01*
X124899357Y-57623143D01*
X125470786Y-57623143D01*
X125756500Y-57480286D01*
X121899357Y-57480286D02*
X122185071Y-57623143D01*
X122756500Y-57623143D01*
X123042214Y-57480286D01*
X123185071Y-57194571D01*
X123185071Y-56051714D01*
X123042214Y-55766000D01*
X122756500Y-55623143D01*
X122185071Y-55623143D01*
X121899357Y-55766000D01*
X121756500Y-56051714D01*
X121756500Y-56337429D01*
X123185071Y-56623143D01*
X119185071Y-57623143D02*
X119185071Y-54623143D01*
X119185071Y-57480286D02*
X119470785Y-57623143D01*
X120042214Y-57623143D01*
X120327928Y-57480286D01*
X120470785Y-57337429D01*
X120613642Y-57051714D01*
X120613642Y-56194571D01*
X120470785Y-55908857D01*
X120327928Y-55766000D01*
X120042214Y-55623143D01*
X119470785Y-55623143D01*
X119185071Y-55766000D01*
X116470785Y-57623143D02*
X116470785Y-54623143D01*
X116470785Y-57480286D02*
X116756499Y-57623143D01*
X117327928Y-57623143D01*
X117613642Y-57480286D01*
X117756499Y-57337429D01*
X117899356Y-57051714D01*
X117899356Y-56194571D01*
X117756499Y-55908857D01*
X117613642Y-55766000D01*
X117327928Y-55623143D01*
X116756499Y-55623143D01*
X116470785Y-55766000D01*
X113899356Y-57480286D02*
X114185070Y-57623143D01*
X114756499Y-57623143D01*
X115042213Y-57480286D01*
X115185070Y-57194571D01*
X115185070Y-56051714D01*
X115042213Y-55766000D01*
X114756499Y-55623143D01*
X114185070Y-55623143D01*
X113899356Y-55766000D01*
X113756499Y-56051714D01*
X113756499Y-56337429D01*
X115185070Y-56623143D01*
X111185070Y-57623143D02*
X111185070Y-54623143D01*
X111185070Y-57480286D02*
X111470784Y-57623143D01*
X112042213Y-57623143D01*
X112327927Y-57480286D01*
X112470784Y-57337429D01*
X112613641Y-57051714D01*
X112613641Y-56194571D01*
X112470784Y-55908857D01*
X112327927Y-55766000D01*
X112042213Y-55623143D01*
X111470784Y-55623143D01*
X111185070Y-55766000D01*
X109756498Y-57337429D02*
X109613641Y-57480286D01*
X109756498Y-57623143D01*
X109899355Y-57480286D01*
X109756498Y-57337429D01*
X109756498Y-57623143D01*
X107042213Y-57480286D02*
X107327927Y-57623143D01*
X107899356Y-57623143D01*
X108185070Y-57480286D01*
X108327927Y-57337429D01*
X108470784Y-57051714D01*
X108470784Y-56194571D01*
X108327927Y-55908857D01*
X108185070Y-55766000D01*
X107899356Y-55623143D01*
X107327927Y-55623143D01*
X107042213Y-55766000D01*
X105327927Y-57623143D02*
X105613641Y-57480286D01*
X105756498Y-57337429D01*
X105899355Y-57051714D01*
X105899355Y-56194571D01*
X105756498Y-55908857D01*
X105613641Y-55766000D01*
X105327927Y-55623143D01*
X104899355Y-55623143D01*
X104613641Y-55766000D01*
X104470784Y-55908857D01*
X104327927Y-56194571D01*
X104327927Y-57051714D01*
X104470784Y-57337429D01*
X104613641Y-57480286D01*
X104899355Y-57623143D01*
X105327927Y-57623143D01*
X103042212Y-57623143D02*
X103042212Y-55623143D01*
X103042212Y-55908857D02*
X102899355Y-55766000D01*
X102613641Y-55623143D01*
X102185069Y-55623143D01*
X101899355Y-55766000D01*
X101756498Y-56051714D01*
X101756498Y-57623143D01*
X101756498Y-56051714D02*
X101613641Y-55766000D01*
X101327927Y-55623143D01*
X100899355Y-55623143D01*
X100613641Y-55766000D01*
X100470784Y-56051714D01*
X100470784Y-57623143D01*
D10*
X39556500Y-159166000D02*
X39556500Y-32166000D01*
X219556500Y-32166000D02*
X219556500Y-159166000D01*
X43556500Y-28166000D02*
X215556500Y-28166000D01*
X39556500Y-159166000D02*
G75*
G03X43556500Y-163166000I4000000J0D01*
G01*
X215556500Y-163166000D02*
G75*
G03X219556500Y-159166000I0J4000000D01*
G01*
X219556500Y-32166000D02*
G75*
G03X215556500Y-28166000I-4000000J0D01*
G01*
X43556500Y-28166000D02*
G75*
G03X39556500Y-32166000I0J-4000000D01*
G01*
D13*
G36*
X149581000Y-55767600D02*
X149591160Y-56290840D01*
X149616560Y-56666760D01*
X149669900Y-56953780D01*
X149763880Y-57217940D01*
X149832460Y-57370340D01*
X150312520Y-58170440D01*
X150444600Y-58310140D01*
X150444600Y-53910860D01*
X150967840Y-53910860D01*
X151277720Y-53915940D01*
X151430120Y-53956580D01*
X151486000Y-54060720D01*
X151491080Y-54200420D01*
X151463140Y-54462040D01*
X151356460Y-54589040D01*
X151117700Y-54619520D01*
X150927200Y-54609360D01*
X150657960Y-54576340D01*
X150530960Y-54492520D01*
X150485240Y-54304560D01*
X150480160Y-54243600D01*
X150444600Y-53910860D01*
X150444600Y-58310140D01*
X150457300Y-58325380D01*
X150457300Y-57418600D01*
X150457300Y-57060460D01*
X150457300Y-56697240D01*
X150457300Y-56488960D01*
X150457300Y-56130820D01*
X150457300Y-55767600D01*
X150457300Y-55561860D01*
X150457300Y-55201180D01*
X150457300Y-54837960D01*
X150975460Y-54837960D01*
X151491080Y-54837960D01*
X151491080Y-55201180D01*
X151491080Y-55561860D01*
X150975460Y-55561860D01*
X150457300Y-55561860D01*
X150457300Y-55767600D01*
X150975460Y-55767600D01*
X151491080Y-55767600D01*
X151491080Y-56130820D01*
X151491080Y-56488960D01*
X150975460Y-56488960D01*
X150457300Y-56488960D01*
X150457300Y-56697240D01*
X150975460Y-56697240D01*
X151491080Y-56697240D01*
X151491080Y-57060460D01*
X151491080Y-57418600D01*
X150975460Y-57418600D01*
X150457300Y-57418600D01*
X150457300Y-58325380D01*
X150909420Y-58807980D01*
X151595220Y-59267720D01*
X151595220Y-57987560D01*
X151595220Y-53806720D01*
X151595220Y-53283480D01*
X151595220Y-52760240D01*
X151927960Y-52793260D01*
X152133700Y-52826280D01*
X152237840Y-52912640D01*
X152281020Y-53113300D01*
X152296260Y-53316500D01*
X152329280Y-53806720D01*
X151963520Y-53806720D01*
X151595220Y-53806720D01*
X151595220Y-57987560D01*
X151602840Y-57700540D01*
X151656180Y-57568460D01*
X151795880Y-57525280D01*
X151955900Y-57525280D01*
X152179420Y-57532900D01*
X152281020Y-57598940D01*
X152316580Y-57781820D01*
X152316580Y-57987560D01*
X152308960Y-58274580D01*
X152255620Y-58406660D01*
X152118460Y-58449840D01*
X151955900Y-58452380D01*
X151732380Y-58439680D01*
X151628240Y-58376180D01*
X151597760Y-58193300D01*
X151595220Y-57987560D01*
X151595220Y-59267720D01*
X151643480Y-59300740D01*
X152288640Y-59587760D01*
X152522320Y-59658880D01*
X152522320Y-57987560D01*
X152522320Y-53806720D01*
X152522320Y-53291100D01*
X152522320Y-52772940D01*
X152885540Y-52772940D01*
X153243680Y-52772940D01*
X153243680Y-53291100D01*
X153243680Y-53806720D01*
X152885540Y-53806720D01*
X152522320Y-53806720D01*
X152522320Y-57987560D01*
X152532480Y-57700540D01*
X152585820Y-57568460D01*
X152725520Y-57525280D01*
X152885540Y-57525280D01*
X153109060Y-57532900D01*
X153210660Y-57598940D01*
X153243680Y-57781820D01*
X153243680Y-57987560D01*
X153238600Y-58274580D01*
X153185260Y-58406660D01*
X153045560Y-58449840D01*
X152885540Y-58452380D01*
X152662020Y-58439680D01*
X152557880Y-58376180D01*
X152527400Y-58193300D01*
X152522320Y-57987560D01*
X152522320Y-59658880D01*
X152662020Y-59704600D01*
X153002380Y-59768100D01*
X153396080Y-59788420D01*
X153477360Y-59785880D01*
X153477360Y-57987560D01*
X153482440Y-57700540D01*
X153505300Y-57634500D01*
X153505300Y-53466360D01*
X153505300Y-53291100D01*
X153512920Y-53001540D01*
X153568800Y-52864380D01*
X153713580Y-52808500D01*
X153840580Y-52793260D01*
X154173320Y-52760240D01*
X154173320Y-53291100D01*
X154173320Y-53819420D01*
X153840580Y-53786400D01*
X153632300Y-53755920D01*
X153535780Y-53669560D01*
X153505300Y-53466360D01*
X153505300Y-57634500D01*
X153530700Y-57568460D01*
X153667860Y-57525280D01*
X153822800Y-57525280D01*
X154041240Y-57532900D01*
X154142840Y-57601480D01*
X154173320Y-57784360D01*
X154173320Y-57987560D01*
X154168240Y-58274580D01*
X154114900Y-58406660D01*
X153977740Y-58449840D01*
X153830420Y-58452380D01*
X153619600Y-58439680D01*
X153518000Y-58368560D01*
X153482440Y-58183140D01*
X153477360Y-57987560D01*
X153477360Y-59785880D01*
X153848200Y-59775720D01*
X154358740Y-59737620D01*
X154455260Y-59719840D01*
X154455260Y-58195840D01*
X154457800Y-58142500D01*
X154457800Y-52902480D01*
X154528920Y-52841520D01*
X154737200Y-52795800D01*
X154762600Y-52795800D01*
X155092800Y-52760240D01*
X155123280Y-53354600D01*
X155156300Y-53954040D01*
X155207100Y-53951500D01*
X155207100Y-53446040D01*
X155207100Y-53034560D01*
X155257900Y-52981220D01*
X155311240Y-53034560D01*
X155257900Y-53082820D01*
X155207100Y-53034560D01*
X155207100Y-53446040D01*
X155257900Y-53392700D01*
X155311240Y-53446040D01*
X155257900Y-53499380D01*
X155207100Y-53446040D01*
X155207100Y-53951500D01*
X155697320Y-53923560D01*
X156012280Y-53910860D01*
X156174840Y-53938800D01*
X156233260Y-54030240D01*
X156238340Y-54205500D01*
X156223100Y-54403620D01*
X156134200Y-54497600D01*
X155918300Y-54538240D01*
X155798920Y-54548400D01*
X155466180Y-54563640D01*
X155285840Y-54538240D01*
X155214720Y-54454420D01*
X155207100Y-54368060D01*
X155163920Y-54241060D01*
X155130900Y-54233440D01*
X154889600Y-54223280D01*
X154810860Y-54093740D01*
X154823560Y-54012460D01*
X154821020Y-53847360D01*
X154681320Y-53806720D01*
X154551780Y-53768620D01*
X154495900Y-53618760D01*
X154483200Y-53392700D01*
X154480660Y-53110760D01*
X154465420Y-52925340D01*
X154457800Y-52902480D01*
X154457800Y-58142500D01*
X154467960Y-57987560D01*
X154500980Y-57700540D01*
X154569560Y-57563380D01*
X154709260Y-57525280D01*
X154805780Y-57525280D01*
X154988660Y-57535440D01*
X155075020Y-57616720D01*
X155102960Y-57822460D01*
X155102960Y-57987560D01*
X155097880Y-58274580D01*
X155044540Y-58406660D01*
X154907380Y-58449840D01*
X154767680Y-58452380D01*
X154564480Y-58439680D01*
X154470500Y-58376180D01*
X154455260Y-58195840D01*
X154455260Y-59719840D01*
X154747360Y-59674120D01*
X155097880Y-59559820D01*
X155196940Y-59511560D01*
X155196940Y-54837960D01*
X155715100Y-54837960D01*
X156024980Y-54845580D01*
X156179920Y-54886220D01*
X156233260Y-54990360D01*
X156238340Y-55140220D01*
X156210400Y-55345960D01*
X156093560Y-55457720D01*
X155849720Y-55500900D01*
X155575400Y-55498360D01*
X155349340Y-55465340D01*
X155255360Y-55338340D01*
X155227420Y-55163080D01*
X155196940Y-54837960D01*
X155196940Y-59511560D01*
X155257900Y-59483620D01*
X155257900Y-57060460D01*
X155257900Y-56130820D01*
X155273140Y-55942860D01*
X155349340Y-55846340D01*
X155550000Y-55803160D01*
X155750660Y-55787920D01*
X156238340Y-55754900D01*
X156238340Y-56130820D01*
X156238340Y-56501660D01*
X155750660Y-56471180D01*
X155453480Y-56443240D01*
X155311240Y-56384820D01*
X155262980Y-56257820D01*
X155257900Y-56130820D01*
X155257900Y-57060460D01*
X155273140Y-56869960D01*
X155349340Y-56773440D01*
X155550000Y-56730260D01*
X155750660Y-56715020D01*
X156238340Y-56684540D01*
X156238340Y-57060460D01*
X156238340Y-57431300D01*
X155750660Y-57400820D01*
X155453480Y-57372880D01*
X155311240Y-57314460D01*
X155262980Y-57187460D01*
X155257900Y-57060460D01*
X155257900Y-59483620D01*
X155433160Y-59404880D01*
X155796380Y-59211840D01*
X156101180Y-59018800D01*
X156281520Y-58874020D01*
X156393280Y-58764800D01*
X156499960Y-58741940D01*
X156652360Y-58807980D01*
X156652360Y-54497600D01*
X156718400Y-53938800D01*
X156952080Y-53405400D01*
X157345780Y-52938040D01*
X157564220Y-52765320D01*
X157805520Y-52628160D01*
X158067140Y-52549420D01*
X158420200Y-52518940D01*
X158674200Y-52516400D01*
X159083140Y-52526560D01*
X159357460Y-52562120D01*
X159570820Y-52656100D01*
X159796880Y-52816120D01*
X159817200Y-52831360D01*
X160165180Y-53189500D01*
X160452200Y-53626380D01*
X160632540Y-54070880D01*
X160678260Y-54370600D01*
X160632540Y-54789700D01*
X160523320Y-55203720D01*
X160368380Y-55528840D01*
X160292180Y-55622820D01*
X160188040Y-55752360D01*
X160228680Y-55859040D01*
X160376000Y-55975880D01*
X160541100Y-56120660D01*
X160807800Y-56384820D01*
X161140540Y-56727720D01*
X161506300Y-57118880D01*
X161549480Y-57164600D01*
X162474040Y-58167900D01*
X162225120Y-58368560D01*
X161978740Y-58571760D01*
X161300560Y-57868180D01*
X160937340Y-57484640D01*
X160571580Y-57090940D01*
X160269320Y-56753120D01*
X160198200Y-56669300D01*
X159776560Y-56179080D01*
X159403180Y-56334020D01*
X158803740Y-56476260D01*
X158189060Y-56420380D01*
X157914740Y-56331480D01*
X157376260Y-56006360D01*
X156982560Y-55569480D01*
X156741260Y-55056400D01*
X156652360Y-54497600D01*
X156652360Y-58807980D01*
X156654900Y-58813060D01*
X156916520Y-58990860D01*
X156944460Y-59013720D01*
X157701380Y-59432820D01*
X158537040Y-59696980D01*
X159403180Y-59803660D01*
X160256620Y-59740160D01*
X160884000Y-59567440D01*
X161709500Y-59153420D01*
X162395300Y-58594620D01*
X162933780Y-57916440D01*
X163312240Y-57144280D01*
X163520520Y-56293380D01*
X163538300Y-55394220D01*
X163469720Y-54921780D01*
X163291920Y-54251220D01*
X163015060Y-53677180D01*
X162608660Y-53133620D01*
X162423240Y-52927880D01*
X161770460Y-52376700D01*
X161018620Y-51977920D01*
X160205820Y-51739160D01*
X159365080Y-51657880D01*
X158531960Y-51741700D01*
X157734400Y-51993160D01*
X157015580Y-52407180D01*
X156855560Y-52534180D01*
X156555840Y-52788180D01*
X156218020Y-52534180D01*
X155471260Y-52082060D01*
X154640680Y-51795040D01*
X154292700Y-51723920D01*
X153393540Y-51668040D01*
X152527400Y-51807740D01*
X151717140Y-52122700D01*
X150993240Y-52602760D01*
X150381100Y-53237760D01*
X149903580Y-54007380D01*
X149901040Y-54012460D01*
X149753720Y-54337580D01*
X149662280Y-54609360D01*
X149608940Y-54898920D01*
X149588620Y-55259600D01*
X149581000Y-55767600D01*
X149581000Y-55767600D01*
X149581000Y-55767600D01*
G37*
X149581000Y-55767600D02*
X149591160Y-56290840D01*
X149616560Y-56666760D01*
X149669900Y-56953780D01*
X149763880Y-57217940D01*
X149832460Y-57370340D01*
X150312520Y-58170440D01*
X150444600Y-58310140D01*
X150444600Y-53910860D01*
X150967840Y-53910860D01*
X151277720Y-53915940D01*
X151430120Y-53956580D01*
X151486000Y-54060720D01*
X151491080Y-54200420D01*
X151463140Y-54462040D01*
X151356460Y-54589040D01*
X151117700Y-54619520D01*
X150927200Y-54609360D01*
X150657960Y-54576340D01*
X150530960Y-54492520D01*
X150485240Y-54304560D01*
X150480160Y-54243600D01*
X150444600Y-53910860D01*
X150444600Y-58310140D01*
X150457300Y-58325380D01*
X150457300Y-57418600D01*
X150457300Y-57060460D01*
X150457300Y-56697240D01*
X150457300Y-56488960D01*
X150457300Y-56130820D01*
X150457300Y-55767600D01*
X150457300Y-55561860D01*
X150457300Y-55201180D01*
X150457300Y-54837960D01*
X150975460Y-54837960D01*
X151491080Y-54837960D01*
X151491080Y-55201180D01*
X151491080Y-55561860D01*
X150975460Y-55561860D01*
X150457300Y-55561860D01*
X150457300Y-55767600D01*
X150975460Y-55767600D01*
X151491080Y-55767600D01*
X151491080Y-56130820D01*
X151491080Y-56488960D01*
X150975460Y-56488960D01*
X150457300Y-56488960D01*
X150457300Y-56697240D01*
X150975460Y-56697240D01*
X151491080Y-56697240D01*
X151491080Y-57060460D01*
X151491080Y-57418600D01*
X150975460Y-57418600D01*
X150457300Y-57418600D01*
X150457300Y-58325380D01*
X150909420Y-58807980D01*
X151595220Y-59267720D01*
X151595220Y-57987560D01*
X151595220Y-53806720D01*
X151595220Y-53283480D01*
X151595220Y-52760240D01*
X151927960Y-52793260D01*
X152133700Y-52826280D01*
X152237840Y-52912640D01*
X152281020Y-53113300D01*
X152296260Y-53316500D01*
X152329280Y-53806720D01*
X151963520Y-53806720D01*
X151595220Y-53806720D01*
X151595220Y-57987560D01*
X151602840Y-57700540D01*
X151656180Y-57568460D01*
X151795880Y-57525280D01*
X151955900Y-57525280D01*
X152179420Y-57532900D01*
X152281020Y-57598940D01*
X152316580Y-57781820D01*
X152316580Y-57987560D01*
X152308960Y-58274580D01*
X152255620Y-58406660D01*
X152118460Y-58449840D01*
X151955900Y-58452380D01*
X151732380Y-58439680D01*
X151628240Y-58376180D01*
X151597760Y-58193300D01*
X151595220Y-57987560D01*
X151595220Y-59267720D01*
X151643480Y-59300740D01*
X152288640Y-59587760D01*
X152522320Y-59658880D01*
X152522320Y-57987560D01*
X152522320Y-53806720D01*
X152522320Y-53291100D01*
X152522320Y-52772940D01*
X152885540Y-52772940D01*
X153243680Y-52772940D01*
X153243680Y-53291100D01*
X153243680Y-53806720D01*
X152885540Y-53806720D01*
X152522320Y-53806720D01*
X152522320Y-57987560D01*
X152532480Y-57700540D01*
X152585820Y-57568460D01*
X152725520Y-57525280D01*
X152885540Y-57525280D01*
X153109060Y-57532900D01*
X153210660Y-57598940D01*
X153243680Y-57781820D01*
X153243680Y-57987560D01*
X153238600Y-58274580D01*
X153185260Y-58406660D01*
X153045560Y-58449840D01*
X152885540Y-58452380D01*
X152662020Y-58439680D01*
X152557880Y-58376180D01*
X152527400Y-58193300D01*
X152522320Y-57987560D01*
X152522320Y-59658880D01*
X152662020Y-59704600D01*
X153002380Y-59768100D01*
X153396080Y-59788420D01*
X153477360Y-59785880D01*
X153477360Y-57987560D01*
X153482440Y-57700540D01*
X153505300Y-57634500D01*
X153505300Y-53466360D01*
X153505300Y-53291100D01*
X153512920Y-53001540D01*
X153568800Y-52864380D01*
X153713580Y-52808500D01*
X153840580Y-52793260D01*
X154173320Y-52760240D01*
X154173320Y-53291100D01*
X154173320Y-53819420D01*
X153840580Y-53786400D01*
X153632300Y-53755920D01*
X153535780Y-53669560D01*
X153505300Y-53466360D01*
X153505300Y-57634500D01*
X153530700Y-57568460D01*
X153667860Y-57525280D01*
X153822800Y-57525280D01*
X154041240Y-57532900D01*
X154142840Y-57601480D01*
X154173320Y-57784360D01*
X154173320Y-57987560D01*
X154168240Y-58274580D01*
X154114900Y-58406660D01*
X153977740Y-58449840D01*
X153830420Y-58452380D01*
X153619600Y-58439680D01*
X153518000Y-58368560D01*
X153482440Y-58183140D01*
X153477360Y-57987560D01*
X153477360Y-59785880D01*
X153848200Y-59775720D01*
X154358740Y-59737620D01*
X154455260Y-59719840D01*
X154455260Y-58195840D01*
X154457800Y-58142500D01*
X154457800Y-52902480D01*
X154528920Y-52841520D01*
X154737200Y-52795800D01*
X154762600Y-52795800D01*
X155092800Y-52760240D01*
X155123280Y-53354600D01*
X155156300Y-53954040D01*
X155207100Y-53951500D01*
X155207100Y-53446040D01*
X155207100Y-53034560D01*
X155257900Y-52981220D01*
X155311240Y-53034560D01*
X155257900Y-53082820D01*
X155207100Y-53034560D01*
X155207100Y-53446040D01*
X155257900Y-53392700D01*
X155311240Y-53446040D01*
X155257900Y-53499380D01*
X155207100Y-53446040D01*
X155207100Y-53951500D01*
X155697320Y-53923560D01*
X156012280Y-53910860D01*
X156174840Y-53938800D01*
X156233260Y-54030240D01*
X156238340Y-54205500D01*
X156223100Y-54403620D01*
X156134200Y-54497600D01*
X155918300Y-54538240D01*
X155798920Y-54548400D01*
X155466180Y-54563640D01*
X155285840Y-54538240D01*
X155214720Y-54454420D01*
X155207100Y-54368060D01*
X155163920Y-54241060D01*
X155130900Y-54233440D01*
X154889600Y-54223280D01*
X154810860Y-54093740D01*
X154823560Y-54012460D01*
X154821020Y-53847360D01*
X154681320Y-53806720D01*
X154551780Y-53768620D01*
X154495900Y-53618760D01*
X154483200Y-53392700D01*
X154480660Y-53110760D01*
X154465420Y-52925340D01*
X154457800Y-52902480D01*
X154457800Y-58142500D01*
X154467960Y-57987560D01*
X154500980Y-57700540D01*
X154569560Y-57563380D01*
X154709260Y-57525280D01*
X154805780Y-57525280D01*
X154988660Y-57535440D01*
X155075020Y-57616720D01*
X155102960Y-57822460D01*
X155102960Y-57987560D01*
X155097880Y-58274580D01*
X155044540Y-58406660D01*
X154907380Y-58449840D01*
X154767680Y-58452380D01*
X154564480Y-58439680D01*
X154470500Y-58376180D01*
X154455260Y-58195840D01*
X154455260Y-59719840D01*
X154747360Y-59674120D01*
X155097880Y-59559820D01*
X155196940Y-59511560D01*
X155196940Y-54837960D01*
X155715100Y-54837960D01*
X156024980Y-54845580D01*
X156179920Y-54886220D01*
X156233260Y-54990360D01*
X156238340Y-55140220D01*
X156210400Y-55345960D01*
X156093560Y-55457720D01*
X155849720Y-55500900D01*
X155575400Y-55498360D01*
X155349340Y-55465340D01*
X155255360Y-55338340D01*
X155227420Y-55163080D01*
X155196940Y-54837960D01*
X155196940Y-59511560D01*
X155257900Y-59483620D01*
X155257900Y-57060460D01*
X155257900Y-56130820D01*
X155273140Y-55942860D01*
X155349340Y-55846340D01*
X155550000Y-55803160D01*
X155750660Y-55787920D01*
X156238340Y-55754900D01*
X156238340Y-56130820D01*
X156238340Y-56501660D01*
X155750660Y-56471180D01*
X155453480Y-56443240D01*
X155311240Y-56384820D01*
X155262980Y-56257820D01*
X155257900Y-56130820D01*
X155257900Y-57060460D01*
X155273140Y-56869960D01*
X155349340Y-56773440D01*
X155550000Y-56730260D01*
X155750660Y-56715020D01*
X156238340Y-56684540D01*
X156238340Y-57060460D01*
X156238340Y-57431300D01*
X155750660Y-57400820D01*
X155453480Y-57372880D01*
X155311240Y-57314460D01*
X155262980Y-57187460D01*
X155257900Y-57060460D01*
X155257900Y-59483620D01*
X155433160Y-59404880D01*
X155796380Y-59211840D01*
X156101180Y-59018800D01*
X156281520Y-58874020D01*
X156393280Y-58764800D01*
X156499960Y-58741940D01*
X156652360Y-58807980D01*
X156652360Y-54497600D01*
X156718400Y-53938800D01*
X156952080Y-53405400D01*
X157345780Y-52938040D01*
X157564220Y-52765320D01*
X157805520Y-52628160D01*
X158067140Y-52549420D01*
X158420200Y-52518940D01*
X158674200Y-52516400D01*
X159083140Y-52526560D01*
X159357460Y-52562120D01*
X159570820Y-52656100D01*
X159796880Y-52816120D01*
X159817200Y-52831360D01*
X160165180Y-53189500D01*
X160452200Y-53626380D01*
X160632540Y-54070880D01*
X160678260Y-54370600D01*
X160632540Y-54789700D01*
X160523320Y-55203720D01*
X160368380Y-55528840D01*
X160292180Y-55622820D01*
X160188040Y-55752360D01*
X160228680Y-55859040D01*
X160376000Y-55975880D01*
X160541100Y-56120660D01*
X160807800Y-56384820D01*
X161140540Y-56727720D01*
X161506300Y-57118880D01*
X161549480Y-57164600D01*
X162474040Y-58167900D01*
X162225120Y-58368560D01*
X161978740Y-58571760D01*
X161300560Y-57868180D01*
X160937340Y-57484640D01*
X160571580Y-57090940D01*
X160269320Y-56753120D01*
X160198200Y-56669300D01*
X159776560Y-56179080D01*
X159403180Y-56334020D01*
X158803740Y-56476260D01*
X158189060Y-56420380D01*
X157914740Y-56331480D01*
X157376260Y-56006360D01*
X156982560Y-55569480D01*
X156741260Y-55056400D01*
X156652360Y-54497600D01*
X156652360Y-58807980D01*
X156654900Y-58813060D01*
X156916520Y-58990860D01*
X156944460Y-59013720D01*
X157701380Y-59432820D01*
X158537040Y-59696980D01*
X159403180Y-59803660D01*
X160256620Y-59740160D01*
X160884000Y-59567440D01*
X161709500Y-59153420D01*
X162395300Y-58594620D01*
X162933780Y-57916440D01*
X163312240Y-57144280D01*
X163520520Y-56293380D01*
X163538300Y-55394220D01*
X163469720Y-54921780D01*
X163291920Y-54251220D01*
X163015060Y-53677180D01*
X162608660Y-53133620D01*
X162423240Y-52927880D01*
X161770460Y-52376700D01*
X161018620Y-51977920D01*
X160205820Y-51739160D01*
X159365080Y-51657880D01*
X158531960Y-51741700D01*
X157734400Y-51993160D01*
X157015580Y-52407180D01*
X156855560Y-52534180D01*
X156555840Y-52788180D01*
X156218020Y-52534180D01*
X155471260Y-52082060D01*
X154640680Y-51795040D01*
X154292700Y-51723920D01*
X153393540Y-51668040D01*
X152527400Y-51807740D01*
X151717140Y-52122700D01*
X150993240Y-52602760D01*
X150381100Y-53237760D01*
X149903580Y-54007380D01*
X149901040Y-54012460D01*
X149753720Y-54337580D01*
X149662280Y-54609360D01*
X149608940Y-54898920D01*
X149588620Y-55259600D01*
X149581000Y-55767600D01*
X149581000Y-55767600D01*
G36*
X157292440Y-54263920D02*
X157320380Y-54736360D01*
X157493100Y-55175780D01*
X157785200Y-55541540D01*
X158173820Y-55787920D01*
X158615780Y-55869200D01*
X158879940Y-55823480D01*
X159189820Y-55709180D01*
X159225380Y-55691400D01*
X159647020Y-55373900D01*
X159911180Y-54970040D01*
X160017860Y-54512840D01*
X159961980Y-54053100D01*
X159746080Y-53626380D01*
X159367620Y-53275860D01*
X159319360Y-53247920D01*
X158885020Y-53098060D01*
X158410040Y-53113300D01*
X157957920Y-53275860D01*
X157589620Y-53570500D01*
X157432140Y-53796560D01*
X157292440Y-54263920D01*
X157292440Y-54263920D01*
X157292440Y-54263920D01*
G37*
X157292440Y-54263920D02*
X157320380Y-54736360D01*
X157493100Y-55175780D01*
X157785200Y-55541540D01*
X158173820Y-55787920D01*
X158615780Y-55869200D01*
X158879940Y-55823480D01*
X159189820Y-55709180D01*
X159225380Y-55691400D01*
X159647020Y-55373900D01*
X159911180Y-54970040D01*
X160017860Y-54512840D01*
X159961980Y-54053100D01*
X159746080Y-53626380D01*
X159367620Y-53275860D01*
X159319360Y-53247920D01*
X158885020Y-53098060D01*
X158410040Y-53113300D01*
X157957920Y-53275860D01*
X157589620Y-53570500D01*
X157432140Y-53796560D01*
X157292440Y-54263920D01*
X157292440Y-54263920D01*
%LPC*%
D14*
X75374500Y-156083000D03*
X77833220Y-159258000D03*
X72834500Y-159258000D03*
D15*
X48450500Y-31750000D03*
X50990500Y-31750000D03*
X53530500Y-31750000D03*
X56070500Y-31750000D03*
X58610500Y-31750000D03*
X61150500Y-31750000D03*
X63690500Y-31750000D03*
X66230500Y-31750000D03*
X68770500Y-31750000D03*
X71310500Y-31750000D03*
X73850500Y-31750000D03*
X76390500Y-31750000D03*
X78930500Y-31750000D03*
X81470500Y-31750000D03*
X84010500Y-31750000D03*
X86550500Y-31750000D03*
D16*
X42951400Y-31750000D03*
X42951400Y-62750700D03*
X117949980Y-62750700D03*
X117949980Y-31750000D03*
D17*
X102298500Y-97282000D03*
X99758500Y-97282000D03*
X97218500Y-97282000D03*
X94678500Y-97282000D03*
X92138500Y-97282000D03*
X89598500Y-97282000D03*
X87058500Y-97282000D03*
X84518500Y-97282000D03*
X81978500Y-97282000D03*
X79438500Y-97282000D03*
X76898500Y-97282000D03*
X74358500Y-97282000D03*
X71818500Y-97282000D03*
X69278500Y-97282000D03*
X66738500Y-97282000D03*
X64198500Y-97282000D03*
X61658500Y-97282000D03*
X59118500Y-97282000D03*
X56578500Y-97282000D03*
X54038500Y-97282000D03*
D18*
X50482500Y-45466000D03*
X50482500Y-48006000D03*
X48483520Y-48006000D03*
X48483520Y-45466000D03*
D19*
X45783500Y-40736520D03*
X45783500Y-52735480D03*
D20*
X71818500Y-105156000D03*
X71818500Y-107696000D03*
X71818500Y-110236000D03*
X71818500Y-112776000D03*
X194627500Y-120650000D03*
X194627500Y-118110000D03*
X194627500Y-115570000D03*
X194627500Y-113030000D03*
X194627500Y-110490000D03*
X194627500Y-107950000D03*
X194627500Y-105410000D03*
X194627500Y-102870000D03*
X208216500Y-150876000D03*
X208216500Y-148336000D03*
X208216500Y-145796000D03*
X208216500Y-143256000D03*
X208216500Y-140716000D03*
X208216500Y-138176000D03*
X208216500Y-135636000D03*
X208216500Y-133096000D03*
X138620500Y-75946000D03*
X138620500Y-78486000D03*
X138620500Y-81026000D03*
X138620500Y-83566000D03*
X138620500Y-86106000D03*
X138620500Y-88646000D03*
X138620500Y-91186000D03*
X138620500Y-93726000D03*
X138620500Y-96266000D03*
X138620500Y-98806000D03*
X138620500Y-101346000D03*
X138620500Y-103886000D03*
X138620500Y-106426000D03*
X138620500Y-108966000D03*
X138620500Y-111506000D03*
X138620500Y-114046000D03*
X138620500Y-116586000D03*
X138620500Y-119126000D03*
X138620500Y-121666000D03*
X138620500Y-124206000D03*
X138620500Y-126746000D03*
X138620500Y-129286000D03*
X138620500Y-131826000D03*
X138620500Y-134366000D03*
X138620500Y-136906000D03*
X138620500Y-139446000D03*
X138620500Y-141986000D03*
X138620500Y-144526000D03*
X138620500Y-147066000D03*
X138620500Y-149606000D03*
X138620500Y-152146000D03*
X138620500Y-154686000D03*
D21*
X41338500Y-116078000D03*
D20*
X41338500Y-113538000D03*
X41338500Y-110998000D03*
X41338500Y-108458000D03*
X41338500Y-105918000D03*
X41338500Y-103378000D03*
D22*
X42100500Y-124206000D03*
D23*
X42100500Y-121666000D03*
X44640500Y-124206000D03*
X44640500Y-121666000D03*
X47180500Y-124206000D03*
X47180500Y-121666000D03*
X49720500Y-124206000D03*
X49720500Y-121666000D03*
D22*
X42100500Y-131826000D03*
D23*
X42100500Y-129286000D03*
X44640500Y-131826000D03*
X44640500Y-129286000D03*
X47180500Y-131826000D03*
X47180500Y-129286000D03*
X49720500Y-131826000D03*
X49720500Y-129286000D03*
D22*
X42100500Y-139446000D03*
D23*
X42100500Y-136906000D03*
X44640500Y-139446000D03*
X44640500Y-136906000D03*
X47180500Y-139446000D03*
X47180500Y-136906000D03*
X49720500Y-139446000D03*
X49720500Y-136906000D03*
D17*
X110740500Y-68560000D03*
X113280500Y-68560000D03*
X115820500Y-68560000D03*
X118360500Y-68560000D03*
X80454500Y-143002000D03*
X82994500Y-143002000D03*
X85534500Y-143002000D03*
D24*
X48198620Y-68072860D03*
X48198620Y-65532860D03*
X48198620Y-63500860D03*
X48198620Y-60960860D03*
D25*
X45531620Y-71120860D03*
X45531620Y-57404860D03*
D26*
X64960500Y-159258000D03*
D27*
X67500500Y-159258000D03*
D20*
X217741500Y-124206000D03*
X217741500Y-121666000D03*
X217741500Y-119126000D03*
X217741500Y-116586000D03*
X217741500Y-114046000D03*
X217741500Y-105791000D03*
X217741500Y-103251000D03*
X217741500Y-100711000D03*
X217741500Y-98171000D03*
X44894500Y-113792000D03*
X44894500Y-111252000D03*
X44894500Y-108712000D03*
X44894500Y-106172000D03*
D17*
X141024500Y-160416000D03*
X143564500Y-160416000D03*
X146104500Y-160416000D03*
X148644500Y-160416000D03*
X151184500Y-160416000D03*
X153724500Y-160416000D03*
X156264500Y-160416000D03*
X158804500Y-160416000D03*
X161344500Y-160416000D03*
X163884500Y-160416000D03*
X166424500Y-160416000D03*
X168964500Y-160416000D03*
X171504500Y-160416000D03*
X174044500Y-160416000D03*
X176584500Y-160416000D03*
X179124500Y-160416000D03*
X141024500Y-157916000D03*
X143564500Y-157916000D03*
X146104500Y-157916000D03*
X148644500Y-157916000D03*
X151184500Y-157916000D03*
X153724500Y-157916000D03*
X156264500Y-157916000D03*
X158804500Y-157916000D03*
X161344500Y-157916000D03*
X163884500Y-157916000D03*
X166424500Y-157916000D03*
X168964500Y-157916000D03*
X171504500Y-157916000D03*
X174044500Y-157916000D03*
X176584500Y-157916000D03*
X179124500Y-157916000D03*
D20*
X181546500Y-75946000D03*
X181546500Y-78486000D03*
X181546500Y-81026000D03*
X181546500Y-83566000D03*
X181546500Y-86106000D03*
X181546500Y-88646000D03*
X181546500Y-91186000D03*
X181546500Y-93726000D03*
X181546500Y-96266000D03*
X181546500Y-98806000D03*
X181546500Y-101346000D03*
X181546500Y-103886000D03*
X181546500Y-106426000D03*
X181546500Y-108966000D03*
X181546500Y-111506000D03*
X181546500Y-114046000D03*
X181546500Y-116586000D03*
X181546500Y-119126000D03*
X181546500Y-121666000D03*
X181546500Y-124206000D03*
X181546500Y-126746000D03*
X181546500Y-129286000D03*
X181546500Y-131826000D03*
X181546500Y-134366000D03*
X181546500Y-136906000D03*
X181546500Y-139446000D03*
X181546500Y-141986000D03*
X181546500Y-144526000D03*
X181546500Y-147066000D03*
X181546500Y-149606000D03*
X181546500Y-152146000D03*
X181546500Y-154686000D03*
X179006500Y-75946000D03*
X179006500Y-78486000D03*
X179006500Y-81026000D03*
X179006500Y-83566000D03*
X179006500Y-86106000D03*
X179006500Y-88646000D03*
X179006500Y-91186000D03*
X179006500Y-93726000D03*
X179006500Y-96266000D03*
X179006500Y-98806000D03*
X179006500Y-101346000D03*
X179006500Y-103886000D03*
X179006500Y-106426000D03*
X179006500Y-108966000D03*
X179006500Y-111506000D03*
X179006500Y-114046000D03*
X179006500Y-116586000D03*
X179006500Y-119126000D03*
X179006500Y-121666000D03*
X179006500Y-124206000D03*
X179006500Y-126746000D03*
X179006500Y-129286000D03*
X179006500Y-131826000D03*
X179006500Y-134366000D03*
X179006500Y-136906000D03*
X179006500Y-139446000D03*
X179006500Y-141986000D03*
X179006500Y-144526000D03*
X179006500Y-147066000D03*
X179006500Y-149606000D03*
X179006500Y-152146000D03*
X179006500Y-154686000D03*
X141160500Y-75946000D03*
X141160500Y-78486000D03*
X141160500Y-81026000D03*
X141160500Y-83566000D03*
X141160500Y-86106000D03*
X141160500Y-88646000D03*
X141160500Y-91186000D03*
X141160500Y-93726000D03*
X141160500Y-96266000D03*
X141160500Y-98806000D03*
X141160500Y-101346000D03*
X141160500Y-103886000D03*
X141160500Y-106426000D03*
X141160500Y-108966000D03*
X141160500Y-111506000D03*
X141160500Y-114046000D03*
X141160500Y-116586000D03*
X141160500Y-119126000D03*
X141160500Y-121666000D03*
X141160500Y-124206000D03*
X141160500Y-126746000D03*
X141160500Y-129286000D03*
X141160500Y-131826000D03*
X141160500Y-134366000D03*
X141160500Y-136906000D03*
X141160500Y-139446000D03*
X141160500Y-141986000D03*
X141160500Y-144526000D03*
X141160500Y-147066000D03*
X141160500Y-149606000D03*
X141160500Y-152146000D03*
X141160500Y-154686000D03*
D22*
X65976500Y-105156000D03*
D23*
X68516500Y-105156000D03*
X65976500Y-107696000D03*
X68516500Y-107696000D03*
X65976500Y-110236000D03*
X68516500Y-110236000D03*
X65976500Y-112776000D03*
X68516500Y-112776000D03*
D28*
X57546500Y-159766000D03*
D29*
X54546500Y-159766000D03*
X51546500Y-159766000D03*
D30*
X49146460Y-159766000D03*
X59946540Y-159766000D03*
D31*
X162496500Y-45466000D03*
X165036500Y-45466000D03*
X167576500Y-45466000D03*
X170116500Y-45466000D03*
X172656500Y-45466000D03*
X172656500Y-30226000D03*
X170116500Y-30226000D03*
X167576500Y-30226000D03*
X165036500Y-30226000D03*
X162496500Y-30226000D03*
D32*
X42354500Y-148590000D03*
D33*
X48450500Y-148590000D03*
D32*
X44854500Y-153670000D03*
D34*
X198556500Y-78166000D03*
X198556500Y-80706000D03*
X198556500Y-83246000D03*
X198556500Y-85786000D03*
X198556500Y-88326000D03*
X198556500Y-90866000D03*
X198556500Y-93406000D03*
X198556500Y-95946000D03*
X206176500Y-95946000D03*
X206176500Y-93406000D03*
X206176500Y-90866000D03*
X206176500Y-88326000D03*
X206176500Y-85786000D03*
X206176500Y-83246000D03*
X206176500Y-80706000D03*
X206176500Y-78166000D03*
D35*
X215836500Y-92456000D03*
D36*
X215836500Y-87376000D03*
D35*
X215836500Y-82296000D03*
D36*
X215836500Y-77216000D03*
X195867020Y-53690520D03*
X193865500Y-59690000D03*
X207865980Y-53690520D03*
X207865980Y-65689480D03*
X195867020Y-65689480D03*
D35*
X215582500Y-64770000D03*
D36*
X215582500Y-59690000D03*
X215582500Y-54610000D03*
D37*
X216056500Y-159666000D03*
X43056500Y-31666000D03*
X43056500Y-159666000D03*
X216056500Y-31666000D03*
D38*
X44038500Y-79042000D03*
X44038500Y-87042000D03*
D39*
X96954340Y-76200000D03*
X89354660Y-76200000D03*
D26*
X205041500Y-72566000D03*
X200041500Y-69166000D03*
X210041500Y-69166000D03*
D40*
X84264500Y-44196000D03*
X81724500Y-44196000D03*
D31*
X175196500Y-45466000D03*
X177736500Y-45466000D03*
X180276500Y-45466000D03*
X182816500Y-45466000D03*
X185356500Y-45466000D03*
X185356500Y-30226000D03*
X182816500Y-30226000D03*
X180276500Y-30226000D03*
X177736500Y-30226000D03*
X175196500Y-30226000D03*
X187896500Y-45466000D03*
X190436500Y-45466000D03*
X192976500Y-45466000D03*
X195516500Y-45466000D03*
X198056500Y-45466000D03*
X198056500Y-30226000D03*
X195516500Y-30226000D03*
X192976500Y-30226000D03*
X190436500Y-30226000D03*
X187896500Y-30226000D03*
X200596500Y-45466000D03*
X203136500Y-45466000D03*
X205676500Y-45466000D03*
X208216500Y-45466000D03*
X210756500Y-45466000D03*
X210756500Y-30226000D03*
X208216500Y-30226000D03*
X205676500Y-30226000D03*
X203136500Y-30226000D03*
X200596500Y-30226000D03*
D41*
X130746500Y-134874000D03*
D40*
X130746500Y-137414000D03*
X130746500Y-139954000D03*
X130746500Y-142494000D03*
X130746500Y-145034000D03*
X130746500Y-147574000D03*
X130746500Y-150114000D03*
X130746500Y-152654000D03*
X130746500Y-155194000D03*
D41*
X198310500Y-101600000D03*
D40*
X198310500Y-104140000D03*
X198310500Y-106680000D03*
X198310500Y-109220000D03*
X198310500Y-111760000D03*
X198310500Y-114300000D03*
X198310500Y-116840000D03*
X198310500Y-119380000D03*
X198310500Y-121920000D03*
D34*
X201358500Y-104140000D03*
X201358500Y-106680000D03*
X201358500Y-109220000D03*
X201358500Y-111760000D03*
X201358500Y-114300000D03*
X201358500Y-116840000D03*
X201358500Y-119380000D03*
X201358500Y-121920000D03*
X208978500Y-121920000D03*
X208978500Y-119380000D03*
X208978500Y-116840000D03*
X208978500Y-114300000D03*
X208978500Y-111760000D03*
X208978500Y-109220000D03*
X208978500Y-106680000D03*
X208978500Y-104140000D03*
D42*
X194795140Y-161170620D03*
X197294500Y-161170620D03*
X199793860Y-161170620D03*
D43*
X191094360Y-153670000D03*
X203494640Y-153670000D03*
D42*
X194795140Y-146669760D03*
X199793860Y-146669760D03*
D14*
X86804500Y-158456000D03*
X84304500Y-155956000D03*
X89304500Y-155956000D03*
X84304500Y-153456000D03*
X89304500Y-153456000D03*
X106616500Y-113498000D03*
X104116500Y-110998000D03*
X109116500Y-110998000D03*
X104116500Y-108498000D03*
X109116500Y-108498000D03*
X121348500Y-113498000D03*
X118848500Y-110998000D03*
X123848500Y-110998000D03*
X118848500Y-108498000D03*
X123848500Y-108498000D03*
D40*
X195008500Y-130302000D03*
X200088500Y-130302000D03*
X195008500Y-139446000D03*
X200088500Y-139446000D03*
X85534500Y-109474000D03*
X80454500Y-109474000D03*
X98488500Y-109474000D03*
X93408500Y-109474000D03*
X94424500Y-130302000D03*
X99504500Y-130302000D03*
X103568500Y-130302000D03*
X108648500Y-130302000D03*
X112712500Y-130302000D03*
X117792500Y-130302000D03*
X121856500Y-130302000D03*
X126936500Y-130302000D03*
X94424500Y-139446000D03*
X99504500Y-139446000D03*
X103568500Y-139446000D03*
X108648500Y-139446000D03*
X112712500Y-139446000D03*
X117792500Y-139446000D03*
X121856500Y-139446000D03*
X126936500Y-139446000D03*
X94424500Y-148590000D03*
X99504500Y-148590000D03*
X103568500Y-148590000D03*
X108648500Y-148590000D03*
X112712500Y-148590000D03*
X117792500Y-148590000D03*
X121856500Y-148590000D03*
X126936500Y-148590000D03*
X94424500Y-157480000D03*
X99504500Y-157480000D03*
X103568500Y-157480000D03*
X108648500Y-157480000D03*
X112712500Y-157734000D03*
X117792500Y-157734000D03*
X121856500Y-157734000D03*
X126936500Y-157734000D03*
M02*
