G04 #@! TF.FileFunction,Soldermask,Bot*
%FSLAX46Y46*%
G04 Gerber Fmt 4.6, Leading zero omitted, Abs format (unit mm)*
G04 Created by KiCad (PCBNEW (2015-01-16 BZR 5376)-product) date 03-Jul-17 11:47:44 AM*
%MOMM*%
G01*
G04 APERTURE LIST*
%ADD10C,0.100000*%
%ADD11C,2.499360*%
%ADD12O,1.800000X2.600000*%
%ADD13C,3.000000*%
%ADD14O,1.727200X2.032000*%
%ADD15C,1.524000*%
%ADD16C,3.500000*%
%ADD17O,2.032000X1.727200*%
%ADD18R,2.032000X1.727200*%
%ADD19R,1.727200X1.727200*%
%ADD20O,1.727200X1.727200*%
%ADD21C,1.501140*%
%ADD22C,2.999740*%
%ADD23C,2.032000*%
%ADD24O,2.032000X2.032000*%
%ADD25R,2.300000X2.300000*%
%ADD26C,2.500000*%
%ADD27O,1.651000X4.000000*%
%ADD28O,1.524000X2.524000*%
%ADD29C,4.800600*%
%ADD30R,4.800600X4.800600*%
%ADD31O,2.300000X1.600000*%
%ADD32R,2.540000X2.540000*%
%ADD33C,2.540000*%
%ADD34C,3.200000*%
%ADD35C,1.600000*%
%ADD36C,2.000000*%
%ADD37C,1.397000*%
%ADD38R,1.397000X1.397000*%
%ADD39O,1.501140X1.998980*%
%ADD40C,3.500120*%
G04 APERTURE END LIST*
D10*
X215556500Y-163166000D02*
X43556500Y-163166000D01*
X39556500Y-159166000D02*
X39556500Y-32166000D01*
X219556500Y-32166000D02*
X219556500Y-159166000D01*
X43556500Y-28166000D02*
X215556500Y-28166000D01*
X39556500Y-159166000D02*
G75*
G03X43556500Y-163166000I4000000J0D01*
G01*
X215556500Y-163166000D02*
G75*
G03X219556500Y-159166000I0J4000000D01*
G01*
X219556500Y-32166000D02*
G75*
G03X215556500Y-28166000I-4000000J0D01*
G01*
X43556500Y-28166000D02*
G75*
G03X39556500Y-32166000I0J-4000000D01*
G01*
D11*
X75374500Y-156083000D03*
X77833220Y-159258000D03*
X72834500Y-159258000D03*
D12*
X48450500Y-31750000D03*
X50990500Y-31750000D03*
X53530500Y-31750000D03*
X56070500Y-31750000D03*
X58610500Y-31750000D03*
X61150500Y-31750000D03*
X63690500Y-31750000D03*
X66230500Y-31750000D03*
X68770500Y-31750000D03*
X71310500Y-31750000D03*
X73850500Y-31750000D03*
X76390500Y-31750000D03*
X78930500Y-31750000D03*
X81470500Y-31750000D03*
X84010500Y-31750000D03*
X86550500Y-31750000D03*
D13*
X42951400Y-31750000D03*
X42951400Y-62750700D03*
X117949980Y-62750700D03*
X117949980Y-31750000D03*
D14*
X102298500Y-97282000D03*
X99758500Y-97282000D03*
X97218500Y-97282000D03*
X94678500Y-97282000D03*
X92138500Y-97282000D03*
X89598500Y-97282000D03*
X87058500Y-97282000D03*
X84518500Y-97282000D03*
X81978500Y-97282000D03*
X79438500Y-97282000D03*
X76898500Y-97282000D03*
X74358500Y-97282000D03*
X71818500Y-97282000D03*
X69278500Y-97282000D03*
X66738500Y-97282000D03*
X64198500Y-97282000D03*
X61658500Y-97282000D03*
X59118500Y-97282000D03*
X56578500Y-97282000D03*
X54038500Y-97282000D03*
D15*
X50482500Y-45466000D03*
X50482500Y-48006000D03*
X48483520Y-48006000D03*
X48483520Y-45466000D03*
D16*
X45783500Y-40736520D03*
X45783500Y-52735480D03*
D17*
X71818500Y-105156000D03*
X71818500Y-107696000D03*
X71818500Y-110236000D03*
X71818500Y-112776000D03*
X194627500Y-120650000D03*
X194627500Y-118110000D03*
X194627500Y-115570000D03*
X194627500Y-113030000D03*
X194627500Y-110490000D03*
X194627500Y-107950000D03*
X194627500Y-105410000D03*
X194627500Y-102870000D03*
X208216500Y-150876000D03*
X208216500Y-148336000D03*
X208216500Y-145796000D03*
X208216500Y-143256000D03*
X208216500Y-140716000D03*
X208216500Y-138176000D03*
X208216500Y-135636000D03*
X208216500Y-133096000D03*
X138620500Y-75946000D03*
X138620500Y-78486000D03*
X138620500Y-81026000D03*
X138620500Y-83566000D03*
X138620500Y-86106000D03*
X138620500Y-88646000D03*
X138620500Y-91186000D03*
X138620500Y-93726000D03*
X138620500Y-96266000D03*
X138620500Y-98806000D03*
X138620500Y-101346000D03*
X138620500Y-103886000D03*
X138620500Y-106426000D03*
X138620500Y-108966000D03*
X138620500Y-111506000D03*
X138620500Y-114046000D03*
X138620500Y-116586000D03*
X138620500Y-119126000D03*
X138620500Y-121666000D03*
X138620500Y-124206000D03*
X138620500Y-126746000D03*
X138620500Y-129286000D03*
X138620500Y-131826000D03*
X138620500Y-134366000D03*
X138620500Y-136906000D03*
X138620500Y-139446000D03*
X138620500Y-141986000D03*
X138620500Y-144526000D03*
X138620500Y-147066000D03*
X138620500Y-149606000D03*
X138620500Y-152146000D03*
X138620500Y-154686000D03*
D18*
X41338500Y-116078000D03*
D17*
X41338500Y-113538000D03*
X41338500Y-110998000D03*
X41338500Y-108458000D03*
X41338500Y-105918000D03*
X41338500Y-103378000D03*
D19*
X42100500Y-124206000D03*
D20*
X42100500Y-121666000D03*
X44640500Y-124206000D03*
X44640500Y-121666000D03*
X47180500Y-124206000D03*
X47180500Y-121666000D03*
X49720500Y-124206000D03*
X49720500Y-121666000D03*
D19*
X42100500Y-131826000D03*
D20*
X42100500Y-129286000D03*
X44640500Y-131826000D03*
X44640500Y-129286000D03*
X47180500Y-131826000D03*
X47180500Y-129286000D03*
X49720500Y-131826000D03*
X49720500Y-129286000D03*
D19*
X42100500Y-139446000D03*
D20*
X42100500Y-136906000D03*
X44640500Y-139446000D03*
X44640500Y-136906000D03*
X47180500Y-139446000D03*
X47180500Y-136906000D03*
X49720500Y-139446000D03*
X49720500Y-136906000D03*
D14*
X110740500Y-68560000D03*
X113280500Y-68560000D03*
X115820500Y-68560000D03*
X118360500Y-68560000D03*
X80454500Y-143002000D03*
X82994500Y-143002000D03*
X85534500Y-143002000D03*
D21*
X48198620Y-68072860D03*
X48198620Y-65532860D03*
X48198620Y-63500860D03*
X48198620Y-60960860D03*
D22*
X45531620Y-71120860D03*
X45531620Y-57404860D03*
D23*
X64960500Y-159258000D03*
D24*
X67500500Y-159258000D03*
D17*
X217741500Y-124206000D03*
X217741500Y-121666000D03*
X217741500Y-119126000D03*
X217741500Y-116586000D03*
X217741500Y-114046000D03*
X217741500Y-105791000D03*
X217741500Y-103251000D03*
X217741500Y-100711000D03*
X217741500Y-98171000D03*
X44894500Y-113792000D03*
X44894500Y-111252000D03*
X44894500Y-108712000D03*
X44894500Y-106172000D03*
D14*
X141024500Y-160416000D03*
X143564500Y-160416000D03*
X146104500Y-160416000D03*
X148644500Y-160416000D03*
X151184500Y-160416000D03*
X153724500Y-160416000D03*
X156264500Y-160416000D03*
X158804500Y-160416000D03*
X161344500Y-160416000D03*
X163884500Y-160416000D03*
X166424500Y-160416000D03*
X168964500Y-160416000D03*
X171504500Y-160416000D03*
X174044500Y-160416000D03*
X176584500Y-160416000D03*
X179124500Y-160416000D03*
X141024500Y-157916000D03*
X143564500Y-157916000D03*
X146104500Y-157916000D03*
X148644500Y-157916000D03*
X151184500Y-157916000D03*
X153724500Y-157916000D03*
X156264500Y-157916000D03*
X158804500Y-157916000D03*
X161344500Y-157916000D03*
X163884500Y-157916000D03*
X166424500Y-157916000D03*
X168964500Y-157916000D03*
X171504500Y-157916000D03*
X174044500Y-157916000D03*
X176584500Y-157916000D03*
X179124500Y-157916000D03*
D17*
X181546500Y-75946000D03*
X181546500Y-78486000D03*
X181546500Y-81026000D03*
X181546500Y-83566000D03*
X181546500Y-86106000D03*
X181546500Y-88646000D03*
X181546500Y-91186000D03*
X181546500Y-93726000D03*
X181546500Y-96266000D03*
X181546500Y-98806000D03*
X181546500Y-101346000D03*
X181546500Y-103886000D03*
X181546500Y-106426000D03*
X181546500Y-108966000D03*
X181546500Y-111506000D03*
X181546500Y-114046000D03*
X181546500Y-116586000D03*
X181546500Y-119126000D03*
X181546500Y-121666000D03*
X181546500Y-124206000D03*
X181546500Y-126746000D03*
X181546500Y-129286000D03*
X181546500Y-131826000D03*
X181546500Y-134366000D03*
X181546500Y-136906000D03*
X181546500Y-139446000D03*
X181546500Y-141986000D03*
X181546500Y-144526000D03*
X181546500Y-147066000D03*
X181546500Y-149606000D03*
X181546500Y-152146000D03*
X181546500Y-154686000D03*
X179006500Y-75946000D03*
X179006500Y-78486000D03*
X179006500Y-81026000D03*
X179006500Y-83566000D03*
X179006500Y-86106000D03*
X179006500Y-88646000D03*
X179006500Y-91186000D03*
X179006500Y-93726000D03*
X179006500Y-96266000D03*
X179006500Y-98806000D03*
X179006500Y-101346000D03*
X179006500Y-103886000D03*
X179006500Y-106426000D03*
X179006500Y-108966000D03*
X179006500Y-111506000D03*
X179006500Y-114046000D03*
X179006500Y-116586000D03*
X179006500Y-119126000D03*
X179006500Y-121666000D03*
X179006500Y-124206000D03*
X179006500Y-126746000D03*
X179006500Y-129286000D03*
X179006500Y-131826000D03*
X179006500Y-134366000D03*
X179006500Y-136906000D03*
X179006500Y-139446000D03*
X179006500Y-141986000D03*
X179006500Y-144526000D03*
X179006500Y-147066000D03*
X179006500Y-149606000D03*
X179006500Y-152146000D03*
X179006500Y-154686000D03*
X141160500Y-75946000D03*
X141160500Y-78486000D03*
X141160500Y-81026000D03*
X141160500Y-83566000D03*
X141160500Y-86106000D03*
X141160500Y-88646000D03*
X141160500Y-91186000D03*
X141160500Y-93726000D03*
X141160500Y-96266000D03*
X141160500Y-98806000D03*
X141160500Y-101346000D03*
X141160500Y-103886000D03*
X141160500Y-106426000D03*
X141160500Y-108966000D03*
X141160500Y-111506000D03*
X141160500Y-114046000D03*
X141160500Y-116586000D03*
X141160500Y-119126000D03*
X141160500Y-121666000D03*
X141160500Y-124206000D03*
X141160500Y-126746000D03*
X141160500Y-129286000D03*
X141160500Y-131826000D03*
X141160500Y-134366000D03*
X141160500Y-136906000D03*
X141160500Y-139446000D03*
X141160500Y-141986000D03*
X141160500Y-144526000D03*
X141160500Y-147066000D03*
X141160500Y-149606000D03*
X141160500Y-152146000D03*
X141160500Y-154686000D03*
D19*
X65976500Y-105156000D03*
D20*
X68516500Y-105156000D03*
X65976500Y-107696000D03*
X68516500Y-107696000D03*
X65976500Y-110236000D03*
X68516500Y-110236000D03*
X65976500Y-112776000D03*
X68516500Y-112776000D03*
D25*
X57546500Y-159766000D03*
D26*
X54546500Y-159766000D03*
X51546500Y-159766000D03*
D27*
X49146460Y-159766000D03*
X59946540Y-159766000D03*
D28*
X162496500Y-45466000D03*
X165036500Y-45466000D03*
X167576500Y-45466000D03*
X170116500Y-45466000D03*
X172656500Y-45466000D03*
X172656500Y-30226000D03*
X170116500Y-30226000D03*
X167576500Y-30226000D03*
X165036500Y-30226000D03*
X162496500Y-30226000D03*
D29*
X42354500Y-148590000D03*
D30*
X48450500Y-148590000D03*
D29*
X44854500Y-153670000D03*
D31*
X198556500Y-78166000D03*
X198556500Y-80706000D03*
X198556500Y-83246000D03*
X198556500Y-85786000D03*
X198556500Y-88326000D03*
X198556500Y-90866000D03*
X198556500Y-93406000D03*
X198556500Y-95946000D03*
X206176500Y-95946000D03*
X206176500Y-93406000D03*
X206176500Y-90866000D03*
X206176500Y-88326000D03*
X206176500Y-85786000D03*
X206176500Y-83246000D03*
X206176500Y-80706000D03*
X206176500Y-78166000D03*
D32*
X215836500Y-92456000D03*
D33*
X215836500Y-87376000D03*
D32*
X215836500Y-82296000D03*
D33*
X215836500Y-77216000D03*
X195867020Y-53690520D03*
X193865500Y-59690000D03*
X207865980Y-53690520D03*
X207865980Y-65689480D03*
X195867020Y-65689480D03*
D32*
X215582500Y-64770000D03*
D33*
X215582500Y-59690000D03*
X215582500Y-54610000D03*
D34*
X216056500Y-159666000D03*
X43056500Y-31666000D03*
X43056500Y-159666000D03*
X216056500Y-31666000D03*
D35*
X44038500Y-79042000D03*
X44038500Y-87042000D03*
D36*
X96954340Y-76200000D03*
X89354660Y-76200000D03*
D23*
X205041500Y-72566000D03*
X200041500Y-69166000D03*
X210041500Y-69166000D03*
D37*
X84264500Y-44196000D03*
X81724500Y-44196000D03*
D28*
X175196500Y-45466000D03*
X177736500Y-45466000D03*
X180276500Y-45466000D03*
X182816500Y-45466000D03*
X185356500Y-45466000D03*
X185356500Y-30226000D03*
X182816500Y-30226000D03*
X180276500Y-30226000D03*
X177736500Y-30226000D03*
X175196500Y-30226000D03*
X187896500Y-45466000D03*
X190436500Y-45466000D03*
X192976500Y-45466000D03*
X195516500Y-45466000D03*
X198056500Y-45466000D03*
X198056500Y-30226000D03*
X195516500Y-30226000D03*
X192976500Y-30226000D03*
X190436500Y-30226000D03*
X187896500Y-30226000D03*
X200596500Y-45466000D03*
X203136500Y-45466000D03*
X205676500Y-45466000D03*
X208216500Y-45466000D03*
X210756500Y-45466000D03*
X210756500Y-30226000D03*
X208216500Y-30226000D03*
X205676500Y-30226000D03*
X203136500Y-30226000D03*
X200596500Y-30226000D03*
D38*
X130746500Y-134874000D03*
D37*
X130746500Y-137414000D03*
X130746500Y-139954000D03*
X130746500Y-142494000D03*
X130746500Y-145034000D03*
X130746500Y-147574000D03*
X130746500Y-150114000D03*
X130746500Y-152654000D03*
X130746500Y-155194000D03*
D38*
X198310500Y-101600000D03*
D37*
X198310500Y-104140000D03*
X198310500Y-106680000D03*
X198310500Y-109220000D03*
X198310500Y-111760000D03*
X198310500Y-114300000D03*
X198310500Y-116840000D03*
X198310500Y-119380000D03*
X198310500Y-121920000D03*
D31*
X201358500Y-104140000D03*
X201358500Y-106680000D03*
X201358500Y-109220000D03*
X201358500Y-111760000D03*
X201358500Y-114300000D03*
X201358500Y-116840000D03*
X201358500Y-119380000D03*
X201358500Y-121920000D03*
X208978500Y-121920000D03*
X208978500Y-119380000D03*
X208978500Y-116840000D03*
X208978500Y-114300000D03*
X208978500Y-111760000D03*
X208978500Y-109220000D03*
X208978500Y-106680000D03*
X208978500Y-104140000D03*
D39*
X194795140Y-161170620D03*
X197294500Y-161170620D03*
X199793860Y-161170620D03*
D40*
X191094360Y-153670000D03*
X203494640Y-153670000D03*
D39*
X194795140Y-146669760D03*
X199793860Y-146669760D03*
D11*
X86804500Y-158456000D03*
X84304500Y-155956000D03*
X89304500Y-155956000D03*
X84304500Y-153456000D03*
X89304500Y-153456000D03*
X106616500Y-113498000D03*
X104116500Y-110998000D03*
X109116500Y-110998000D03*
X104116500Y-108498000D03*
X109116500Y-108498000D03*
X121348500Y-113498000D03*
X118848500Y-110998000D03*
X123848500Y-110998000D03*
X118848500Y-108498000D03*
X123848500Y-108498000D03*
D37*
X195008500Y-130302000D03*
X200088500Y-130302000D03*
X195008500Y-139446000D03*
X200088500Y-139446000D03*
X85534500Y-109474000D03*
X80454500Y-109474000D03*
X98488500Y-109474000D03*
X93408500Y-109474000D03*
X94424500Y-130302000D03*
X99504500Y-130302000D03*
X103568500Y-130302000D03*
X108648500Y-130302000D03*
X112712500Y-130302000D03*
X117792500Y-130302000D03*
X121856500Y-130302000D03*
X126936500Y-130302000D03*
X94424500Y-139446000D03*
X99504500Y-139446000D03*
X103568500Y-139446000D03*
X108648500Y-139446000D03*
X112712500Y-139446000D03*
X117792500Y-139446000D03*
X121856500Y-139446000D03*
X126936500Y-139446000D03*
X94424500Y-148590000D03*
X99504500Y-148590000D03*
X103568500Y-148590000D03*
X108648500Y-148590000D03*
X112712500Y-148590000D03*
X117792500Y-148590000D03*
X121856500Y-148590000D03*
X126936500Y-148590000D03*
X94424500Y-157480000D03*
X99504500Y-157480000D03*
X103568500Y-157480000D03*
X108648500Y-157480000D03*
X112712500Y-157734000D03*
X117792500Y-157734000D03*
X121856500Y-157734000D03*
X126936500Y-157734000D03*
M02*
